<?xml version="1.0" encoding="UTF-8" standalone="no"?>
<!-- Created with Inkscape (http://www.inkscape.org/) -->

<svg
   xmlns:dc="http://purl.org/dc/elements/1.1/"
   xmlns:cc="http://creativecommons.org/ns#"
   xmlns:rdf="http://www.w3.org/1999/02/22-rdf-syntax-ns#"
   xmlns:svg="http://www.w3.org/2000/svg"
   xmlns="http://www.w3.org/2000/svg"
   xmlns:sodipodi="http://sodipodi.sourceforge.net/DTD/sodipodi-0.dtd"
   xmlns:inkscape="http://www.inkscape.org/namespaces/inkscape"
   id="svg3039"
   version="1.1"
   inkscape:version="0.48.4 r9939"
   width="32"
   height="32"
   viewBox="0 0 32 32" 
   sodipodi:docname="logo-2.svg">
  <metadata
     id="metadata3045">
    <rdf:RDF>
      <cc:Work
         rdf:about="">
        <dc:format>image/svg+xml</dc:format>
        <dc:type
           rdf:resource="http://purl.org/dc/dcmitype/StillImage" />
        <dc:title></dc:title>
      </cc:Work>
    </rdf:RDF>
  </metadata>
  <defs
     id="defs3043" />
  <sodipodi:namedview
     pagecolor="#ffffff"
     bordercolor="#666666"
     borderopacity="1"
     objecttolerance="10"
     gridtolerance="10"
     guidetolerance="10"
     inkscape:pageopacity="0"
     inkscape:pageshadow="2"
     inkscape:window-width="966"
     inkscape:window-height="658"
     id="namedview3041"
     showgrid="false"
     inkscape:zoom="8.6942902"
     inkscape:cx="29.278887"
     inkscape:cy="16.905986"
     inkscape:window-x="448"
     inkscape:window-y="227"
     inkscape:window-maximized="0"
     inkscape:current-layer="svg3039" />
  <path
     style="fill:#000000"
     d="M 13.050607,28.834698 C 11.508623,28.555773 8.7488478,27.667912 8.2185621,27.28016 7.8370194,27.001168 7.8633278,26.889404 8.5696398,25.788711 c 0.419941,-0.654422 0.763529,-1.296421 0.763529,-1.426663 0,-0.130246 -0.27132,-0.491699 -0.602931,-0.803234 -1.3387282,-1.257668 -2.512531,-4.182938 -2.512531,-6.261551 0,-1.03724 -0.1603587,-1.117965 -2.2758662,-1.145679 C 0.03025448,16.100336 -0.46096472,15.154724 3.0518003,14.438229 4.3515826,14.173113 4.877655,13.965043 4.8255453,13.736684 4.6587009,13.005523 5.9098544,6.3432421 6.3385577,5.6800291 7.0976895,4.5056374 13.695816,2.7183635 17.285895,2.7146586 c 1.976732,-0.0019 4.569573,0.4574526 6.150284,1.0899277 0.848417,0.3394688 1.041978,0.5636862 1.466784,1.6990831 0.269164,0.7194037 0.771729,2.4347651 1.116809,3.8119152 0.345081,1.3771494 0.748911,2.5017714 0.897404,2.4991604 0.148492,-0.0026 1.01197,-0.112003 1.918837,-0.243095 1.193987,-0.172596 1.739408,-0.163192 1.97712,0.0341 0.553364,0.459251 0.37821,0.69773 -0.929899,1.266097 -1.883337,0.8183 -2.177489,0.927088 -2.646177,0.978649 -0.794062,0.08736 -1.724331,0.981063 -1.799696,1.728968 -0.03974,0.394315 0.202912,1.447959 0.539214,2.341432 0.336302,0.893477 0.61146,1.750173 0.61146,1.903773 0,0.153599 -0.330493,0.474499 -0.73443,0.713112 -0.403936,0.238611 -0.861506,0.720194 -1.016824,1.070185 -0.306861,0.691485 -0.549714,1.038847 -1.165027,1.666373 -0.21997,0.224334 -0.474386,0.70477 -0.565372,1.06763 -0.16131,0.643326 -1.35275,1.856588 -1.823199,1.856588 -0.129473,0 -0.176454,0.09539 -0.104401,0.211973 0.07206,0.116583 -0.01145,0.623485 -0.185593,1.126448 -0.235112,0.679104 -0.496499,0.965848 -1.015552,1.114072 -1.073262,0.306485 -5.586485,0.426145 -6.92703,0.183657 z"
     id="path3049"
     inkscape:connector-curvature="0" />
</svg>
