<?xml version="1.0" encoding="UTF-8" standalone="no"?>
<!-- Created with Inkscape (http://www.inkscape.org/) -->

<svg
   xmlns:dc="http://purl.org/dc/elements/1.1/"
   xmlns:cc="http://creativecommons.org/ns#"
   xmlns:rdf="http://www.w3.org/1999/02/22-rdf-syntax-ns#"
   xmlns:svg="http://www.w3.org/2000/svg"
   xmlns="http://www.w3.org/2000/svg"
   xmlns:sodipodi="http://sodipodi.sourceforge.net/DTD/sodipodi-0.dtd"
   xmlns:inkscape="http://www.inkscape.org/namespaces/inkscape"
   id="svg3916"
   version="1.1"
   inkscape:version="0.48.4 r9939"
   viewBox="0 0 64 64"
   sodipodi:docname="agenda_limousin_exposition.svg">
  <metadata
     id="metadata3922">
    <rdf:RDF>
      <cc:Work
         rdf:about="">
        <dc:format>image/svg+xml</dc:format>
        <dc:type
           rdf:resource="http://purl.org/dc/dcmitype/StillImage" />
        <dc:title></dc:title>
      </cc:Work>
    </rdf:RDF>
  </metadata>
  <defs
     id="defs3920" />
  <sodipodi:namedview
     pagecolor="#ffffff"
     bordercolor="#666666"
     borderopacity="1"
     objecttolerance="10"
     gridtolerance="10"
     guidetolerance="10"
     inkscape:pageopacity="0"
     inkscape:pageshadow="2"
     inkscape:window-width="1855"
     inkscape:window-height="1056"
     id="namedview3918"
     showgrid="false"
     inkscape:zoom="5.2631239"
     inkscape:cx="89.616806"
     inkscape:cy="72.077347"
     inkscape:window-x="65"
     inkscape:window-y="24"
     inkscape:window-maximized="1"
     inkscape:current-layer="svg3916" />
  <path
     sodipodi:type="arc"
     style="fill:#ffffff;fill-opacity:1;fill-rule:evenodd;stroke:none"
     id="path3955"
     sodipodi:cx="615.72052"
     sodipodi:cy="567.34802"
     sodipodi:rx="487.47412"
     sodipodi:ry="489.5426"
     d="m 1103.1946,567.34802 a 487.47412,489.5426 0 1 1 -974.9482,0 487.47412,489.5426 0 1 1 974.9482,0 z"
     transform="matrix(0.05389038,0,0,0.05389038,-1.5371777,2.5735077)" />
  <g
     id="g3926"
     transform="matrix(0.05389038,0,0,0.05389038,0.32068509,0.26975843)">
    <path
       style="fill:#dcdcdc"
       d="m 541.34866,1133.368 c -80.74629,-4.738 -86.46524,0.4605 -157.79312,-35.1685 C 324.70466,1068.8029 278.92185,1035.7871 231.9861,988.89676 208.32989,965.26344 184.77004,958.44714 166.78176,934.64943 108.7302,857.84976 78.667113,815.71379 64.697894,720.35439 60.106953,689.01482 52.38167,669.20516 52.394275,629.50382 c 0.01259,-39.66607 -9.78999,-75.44737 -5.2481,-106.4521 13.859568,-94.61088 25.935578,-169.3793 83.075895,-245.44828 18.70037,-24.89518 32.7564,-57.44048 56.42336,-81.10744 47.27345,-47.27345 77.12823,-73.68518 136.21759,-103.210576 64.73326,-32.345511 129.9211,-51.049291 205,-58.81887 23.4161,-2.423227 85.79771,-2.430132 109,-0.01206 75.32178,7.849789 140.27746,26.490781 205,58.830935 58.84884,29.405221 67.44679,52.111981 114.33662,98.956431 23.65616,23.63329 47.52196,35.49239 65.51016,59.2901 58.0516,76.79967 78.4736,138.13164 92.4429,233.49103 4.5418,31.00473 22.0419,51.18451 22.0545,90.85058 0.013,39.70134 -0.887,53.66043 -5.4779,85 -13.9693,95.3594 -52.8082,188.20033 -110.8598,265 -17.9882,23.79772 -30.82205,38.41478 -54.47821,62.0481 -46.93575,46.89033 -74.19175,55.52873 -133.04263,84.92533 -64.44612,32.1915 -130.6428,51.2329 -204,58.6803 -14.81791,1.5044 -72.08362,2.716 -87,1.8407 z M 445.5,839.33381 C 510.4,770.23336 563.5,712.9162 563.5,711.96235 563.5,710.35891 471.67467,623 469.98925,623 c -1.1439,0 -9.74219,9.06775 -127.40702,134.36333 -60.87688,64.82484 -110.54955,118.43494 -110.38373,119.13358 0.40385,1.70145 92.82584,88.50709 94.21383,88.48859 C 327.01055,964.97752 380.6,908.43426 445.5,839.33381 z M 732.9894,717.54105 c 38.805,-6.65303 69.66521,-18.4313 98.17116,-37.46852 29.54601,-19.73179 50.55701,-41.04968 70.16395,-71.18874 17.07342,-26.24463 28.09345,-55.91561 34.86915,-93.88379 3.00756,-16.85304 3.24388,-50.80129 0.46989,-67.5 -2.46531,-14.8405 -8.07557,-37.58901 -12.3069,-49.90207 -9.94376,-28.93606 -30.10189,-61.05472 -53.31504,-84.94873 -30.7512,-31.65314 -68.67482,-53.80875 -109.99254,-64.25946 -24.48049,-6.19199 -33.87804,-7.5633 -55.65062,-8.12072 -23.60506,-0.60433 -34.38834,0.40917 -56.89845,5.34776 -38.39966,8.42467 -67.06398,21.64865 -97.73357,45.08834 -33.292,25.44391 -63.13636,66.12912 -77.04193,105.02713 -4.14451,11.59341 -9.87885,34.14206 -12.27496,48.26775 -2.55254,15.04786 -3.05555,46.74417 -0.99979,63 2.0335,16.07982 9.84838,47.72421 15.06453,61 21.56811,54.89373 63.74921,100.69273 116.98572,127.01964 7.7,3.80786 19.20859,8.69174 25.57464,10.85307 13.03126,4.42423 38.3725,10.48831 50.42536,12.06663 4.4,0.57618 9.35,1.23706 11,1.46863 7.0567,0.99036 44.43259,-0.31415 53.4894,-1.86692 z M 681.3255,694.99841 C 622.26351,690.06955 567.09526,660.54506 530.11853,614.07668 456.09556,521.05259 471.5781,385.21681 564.66859,310.95237 593.8848,287.64466 632.51823,271.10557 670,265.85966 c 14.15874,-1.98165 46.93233,-1.71245 60.5,0.49694 47.44727,7.72641 88.30037,28.36682 120.74436,61.00426 17.90644,18.0132 30.08083,35.15994 41.27946,58.13914 15.0701,30.92329 21.62947,59.21564 21.67728,93.5 0.0365,26.19715 -2.86096,44.83831 -10.64734,68.50036 -25.56385,77.68607 -93.85933,134.73188 -174.74871,145.96399 -13.66975,1.89815 -34.89786,2.58403 -47.47955,1.53406 z m 66.98295,-67.11032 c 16.12592,-2.49328 29.63686,-9.95191 44.17786,-24.38809 15.81206,-15.69808 22.16981,-29.14489 23.24591,-49.16576 0.30053,-5.59117 0.2811,-10.85715 -0.0432,-11.70218 -0.4344,-1.13202 -3.16894,1.03736 -10.38931,8.24212 -17.1665,17.12934 -42.62524,32.57245 -61.79974,37.48733 -24.25833,6.21799 -55.72904,4.04197 -86.79658,-6.0015 -5.98379,-1.93443 -11.14175,-3.25501 -11.46213,-2.93463 -0.84111,0.84111 3.04261,4.76743 13.02502,13.16789 26.58227,22.36966 55.23413,35.52248 79.04214,36.28479 2.09464,0.0671 7.04464,-0.37842 11,-0.98997 z"
       id="path3932"
       inkscape:connector-curvature="0"
       sodipodi:nodetypes="sssssssssssssssssssssssssssscsssssssssssssssssssssssssssssssscsscsssssccc" />
    <path
       style="fill:#d3d2d2"
       d="M 549.75799,1128.16 C 442.01427,1120.6128 339.25109,1083.8269 251.89908,1021.5363 125.63061,931.49431 89.92008,840.24519 64.981359,688.02077 54.787943,625.80078 54.787943,560.7152 64.981359,498.49521 89.927444,346.22585 175.2692,209.51767 301.62916,119.41127 418.41093,36.135011 489.61982,32.352297 633.19409,48.445607 791.31707,66.16969 936.07787,149.1698 1032.4337,277.35382 c 95.2057,126.6539 113.7233,248.11269 87.9959,405.15097 -24.9387,152.22442 -67.5442,248.98952 -193.8127,339.03151 -80.07588,57.102 -174.25198,93.2384 -271.35891,104.1231 -31.45834,3.5262 -75.84106,4.5782 -105.5,2.5006 z M 447.23229,840.08768 C 512.55453,770.56091 566,712.88024 566,711.90841 566,709.86531 472.72309,621.66044 470.08039,621.20454 467.70645,620.79501 230.5,873.26772 230.5,876.20397 c 0,2.95225 93.18616,90.83479 95.98229,90.51953 1.18382,-0.13347 49.82174,-51.14218 120.75,-126.63582 z M 734.14555,719.11029 c 28.7506,-5.03784 49.83098,-11.56311 71.35445,-22.08719 38.9473,-19.04363 70.8481,-47.35614 95.7988,-85.0231 19.16179,-28.92771 31.36586,-61.68023 37.40724,-100.3912 2.41246,-15.45818 2.38984,-47.89765 -0.0443,-63.51966 C 936.29562,432.90366 929.16367,404.90112 924.50376,392.5 911.40587,357.64338 886.24024,321.84699 857.5,297.19173 836.26515,278.97508 808.51819,262.35651 784.53329,253.48954 773.43618,249.38706 748.71088,243.00632 733.46644,240.31097 719.1927,237.78725 677.56958,237.81686 664,240.3604 c -45.48268,8.52544 -73.9912,20.03731 -106.45879,42.98852 -26.12491,18.4676 -47.30106,40.97662 -65.05629,69.15108 -17.58304,27.90122 -29.80338,64.1458 -34.10316,101.14733 -5.0716,43.64339 4.5962,96.78395 24.7412,135.99379 14.603,28.42298 38.36782,57.95469 62.13719,77.21567 21.62806,17.52582 49.76936,33.33301 73.20398,41.11924 14.27087,4.74155 38.63713,10.50977 50.53587,11.96335 4.675,0.57111 10.075,1.22776 12,1.45922 9.08054,1.09181 41.92651,-0.32245 53.14555,-2.28831 z"
       id="path3930"
       inkscape:connector-curvature="0"
       sodipodi:nodetypes="ssssssssssssssssssssssssssssssssssss" />
    <path
       style="fill:#a7a6a6"
       d="m 556,1170.4117 c -2.475,-0.2043 -10.8,-0.8602 -18.5,-1.4576 -93.93682,-7.2881 -188.53344,-39.8815 -269,-92.6843 C 127.43111,983.69925 32.94524,833.92817 11.086333,668.23924 7.2934313,639.48932 6.4999039,626.01987 6.506472,590.5 6.5165107,536.21166 11.143422,497.46998 23.498725,448.22186 80.936609,219.275 275.17351,45.902887 508.76076,15.086333 537.30767,11.320214 551.00885,10.513035 586.5,10.506472 c 35.51987,-0.0066 48.98932,0.786959 77.73924,4.579861 233.58725,30.816554 427.82416,204.188667 485.26206,433.135527 12.3553,49.24812 16.9822,87.9898 16.9922,142.27814 0.01,35.51987 -0.7869,48.98932 -4.5798,77.73924 -25.2957,191.73901 -147.081,359.77686 -322.40326,444.84766 -62.22005,30.1908 -126.31695,48.1885 -197.51044,55.4588 -14.48713,1.4794 -74.82336,2.7886 -86,1.866 z m 60.5,-97.4359 c 166.29815,-11.0121 311.46409,-102.83101 393.069,-248.62002 31.3012,-55.9202 50.5238,-117.58201 58.0952,-186.35578 2.3809,-21.62706 2.3809,-73.37294 0,-95 -5.4138,-49.17569 -15.4952,-90.06852 -32.8602,-133.28925 C 972.50099,254.64088 832.24732,141.59902 668,114.0735 c -31.47006,-5.27394 -46.38204,-6.45501 -81.5,-6.45501 -35.11796,0 -50.02994,1.18107 -81.5,6.45501 C 353.45125,139.47092 221.42053,237.92868 153.08911,376.5 127.12948,429.1443 112.10196,481.54031 105.33582,543 c -2.38094,21.62706 -2.38094,73.37294 0,95 6.76614,61.45969 21.79366,113.8557 47.75329,166.5 62.68675,127.12433 179.22119,221.0541 316.41089,255.0352 47.51005,11.768 99.90839,16.5589 147,13.4406 z"
       id="path3928"
       inkscape:connector-curvature="0" />
  </g>
</svg>
