<?xml version="1.0" encoding="UTF-8" standalone="no"?>
<!-- Created with Inkscape (http://www.inkscape.org/) -->

<svg
   xmlns:dc="http://purl.org/dc/elements/1.1/"
   xmlns:cc="http://creativecommons.org/ns#"
   xmlns:rdf="http://www.w3.org/1999/02/22-rdf-syntax-ns#"
   xmlns:svg="http://www.w3.org/2000/svg"
   xmlns="http://www.w3.org/2000/svg"
   xmlns:sodipodi="http://sodipodi.sourceforge.net/DTD/sodipodi-0.dtd"
   xmlns:inkscape="http://www.inkscape.org/namespaces/inkscape"
   id="svg2985"
   version="1.1"
   inkscape:version="0.48.4 r9939"
   width="64"
   height="64"
   sodipodi:docname="agenda_limousin_conference-64.svg">
  <metadata
     id="metadata2991">
    <rdf:RDF>
      <cc:Work
         rdf:about="">
        <dc:format>image/svg+xml</dc:format>
        <dc:type
           rdf:resource="http://purl.org/dc/dcmitype/StillImage" />
        <dc:title />
      </cc:Work>
    </rdf:RDF>
  </metadata>
  <defs
     id="defs2989" />
  <sodipodi:namedview
     pagecolor="#ffffff"
     bordercolor="#666666"
     borderopacity="1"
     objecttolerance="10"
     gridtolerance="10"
     guidetolerance="10"
     inkscape:pageopacity="0"
     inkscape:pageshadow="2"
     inkscape:window-width="1855"
     inkscape:window-height="1056"
     id="namedview2987"
     showgrid="false"
     inkscape:zoom="10.020459"
     inkscape:cx="79.679625"
     inkscape:cy="25.761902"
     inkscape:window-x="65"
     inkscape:window-y="24"
     inkscape:window-maximized="1"
     inkscape:current-layer="svg2985" />
  <g
     id="g3044">
    <path
       transform="matrix(0.06892579,0,0,0.0653029,-11.418182,-6.92667)"
       d="m 995.26419,598.80298 a 366.13828,399.1279 0 1 1 -732.27655,0 366.13828,399.1279 0 1 1 732.27655,0 z"
       sodipodi:ry="399.1279"
       sodipodi:rx="366.13828"
       sodipodi:cy="598.80298"
       sodipodi:cx="629.12592"
       id="path3022"
       style="fill:#ffffff;fill-opacity:1;fill-rule:evenodd;stroke:none"
       sodipodi:type="arc" />
    <path
       style="fill:#d2d1d1"
       d="M 29.533962,61.078821 C 17.183973,60.496619 9.3292627,54.182597 4.7921507,42.680529 1.8762528,35.28841 2.0889441,28.285598 5.0045401,20.904142 8.3806814,12.356716 13.934418,5.9660409 22.59901,2.987874 c 2.382641,-0.8189543 5.206598,-0.6933035 7.88272,-0.9563095 1.320291,-0.1297566 4.110557,0.1537275 5.41902,0.2831883 2.68593,0.2657489 4.011749,0.3514239 6.392696,1.1697958 7.777611,2.6732967 14.274737,8.3821404 17.917436,15.7435554 1.646633,3.327635 1.667689,6.401116 2.087231,10.056252 0.688162,5.995446 -0.793873,10.561718 -3.478262,16.01157 -3.030489,6.152497 -7.433776,10.697665 -13.615044,13.756871 -3.477459,1.721048 -7.206435,1.9018 -11.165813,2.279214 -0.86459,0.08241 -3.630068,-0.211942 -4.505032,-0.25319 z m -6.754322,-8.0891 c 0.01615,-0.02613 0.07816,-3.309889 0.137804,-7.297235 0.05964,-3.987347 0.120746,-7.262029 0.13579,-7.277072 0.01504,-0.01504 0.04152,-0.01319 0.05883,0.0041 0.01731,0.01731 1.243755,3.27995 2.725426,7.250304 1.48167,3.970354 2.721688,7.252252 2.755595,7.293108 0.05046,0.0608 0.457149,0.07428 2.241616,0.07428 1.927772,0 2.179967,-0.0096 2.179967,-0.08322 0,-0.04577 -1.447822,-4.517013 -3.217384,-9.936094 -1.916114,-5.867883 -3.203307,-9.890275 -3.182579,-9.945346 0.01914,-0.05086 0.999282,-1.897433 2.178086,-4.103498 1.586092,-2.968284 2.164779,-4.005527 2.225983,-3.989866 0.04549,0.01164 1.260253,0.80699 2.699479,1.767446 1.439226,0.960455 2.677513,1.755006 2.751749,1.765666 0.12761,0.01833 2.455957,-0.803503 2.556513,-0.902363 0.0253,-0.02487 -0.281119,-0.40596 -0.680928,-0.846861 -4.959157,-5.468854 -9.239145,-10.145119 -9.29751,-10.158351 -0.148538,-0.03367 -2.044373,1.672282 -3.673805,3.305852 -2.77505,2.782097 -4.556407,5.097416 -5.693865,7.400599 -0.685128,1.387282 -0.966223,2.305109 -1.078204,3.520534 -0.19101,2.073195 -0.265897,6.872865 -0.209155,13.4052 0.0378,4.351806 0.128125,8.663334 0.183364,8.752713 0.03841,0.06215 4.164818,0.06223 4.203229,5.4e-5 z M 34.34161,18.460348 c 0.575269,-0.182445 1.049592,-0.470892 1.476741,-0.898041 0.424773,-0.424772 0.712486,-0.896334 0.903563,-1.480939 0.115019,-0.351902 0.142223,-0.541938 0.146847,-1.025802 0.0063,-0.656532 -0.06144,-1.005525 -0.296956,-1.530407 -0.587225,-1.308742 -1.898915,-2.166005 -3.314184,-2.166005 -1.358605,0 -2.637867,0.792983 -3.23683,2.006431 -0.390905,0.79194 -0.491655,1.529091 -0.321682,2.353629 0.164349,0.797252 0.655432,1.619332 1.248816,2.090533 0.385353,0.306006 1.077283,0.645669 1.472857,0.723014 0.163319,0.03193 0.345533,0.06928 0.404922,0.083 0.264419,0.06106 1.105099,-0.02512 1.515906,-0.155408 z"
       id="path3001"
       inkscape:connector-curvature="0"
       sodipodi:nodetypes="ssssssssssssscsscscssscssssssssssssccssssssssssss" />
    <path
       style="fill:#b8b8b8"
       d="M 30.95134,61.770277 C 28.993722,61.709214 26.88102,61.455129 24.970782,61.015335 12.066969,58.044504 4.1494843,48.574106 2.5949622,35.44045 2.3292642,33.195653 1.8777189,30.639877 2.1434169,28.395079 2.8109569,22.75525 5.3378318,18.57733 8.8045757,14.127368 10.295512,12.213581 12.179512,10.160961 14.092211,8.6392512 c 4.478844,-3.563288 7.61751,-5.3146087 13.345179,-5.9893095 2.321222,-0.2734323 5.744454,-0.3949333 9.503785,0.1009962 5.734373,0.7564763 8.819358,2.1770517 13.295008,5.7377985 1.912699,1.5217096 3.997384,3.5743296 5.488321,5.4881166 3.465894,4.448871 5.190224,8.677382 5.858491,14.317883 0.281172,2.373229 0.521204,5.33543 0.222053,7.712874 -1.251397,9.945372 -6.637473,17.484124 -15.441686,22.384803 -3.917273,2.180472 -6.446601,2.48209 -10.906901,2.777111 -1.178402,0.07794 -3.165902,0.64253 -4.505121,0.600753 z m 3.307793,-3.984081 c 5.543926,-0.428374 10.603158,-2.48751 14.871345,-6.052715 0.691289,-0.577431 2.114219,-1.967351 2.714827,-2.651847 1.585134,-1.80653 2.778807,-3.581812 3.838334,-5.708534 1.387117,-2.784273 2.193721,-5.542981 2.580972,-8.827296 0.07456,-0.632341 0.09549,-1.23585 0.09549,-2.753469 0,-2.073901 -0.04679,-2.704265 -0.322857,-4.3491 C 57.157102,22.199251 54.706617,17.392883 50.968624,13.578916 47.431763,9.9701667 43.0674,7.5121864 38.218,6.3978479 36.026058,5.894164 34.168605,5.7096249 31.779,5.7581291 29.826326,5.7977645 28.379187,5.9678884 26.611172,6.3656534 20.010233,7.8507194 14.272081,11.830773 10.541046,17.512092 8.5513295,20.54187 7.2400457,23.882108 6.6423562,27.443235 c -0.2760644,1.644835 -0.3228604,2.275199 -0.3228604,4.3491 0,2.077489 0.046649,2.703504 0.3250394,4.361976 0.8031328,4.784549 2.9166278,9.197037 6.1945528,12.932791 0.669836,0.763392 2.109254,2.150798 2.930549,2.824657 4.2582,3.493778 9.293473,5.489691 14.869489,5.894063 0.604765,0.04386 2.963953,0.03107 3.620007,-0.01963 z m -0.07442,-4.78468 c -0.01995,-0.01995 -0.03627,-4.587588 -0.03627,-10.150315 0,-8.714158 -0.01064,-10.114048 -0.07688,-10.114048 -0.04228,0 -0.613995,0.208813 -1.270472,0.464029 -0.656476,0.255216 -1.22319,0.452283 -1.259364,0.437927 -0.08511,-0.03378 -1.02041,-2.08032 -0.999484,-2.186987 0.02448,-0.124815 16.463403,-6.236207 16.542198,-6.149788 0.08257,0.09056 0.84835,2.281781 0.82349,2.356361 -0.0111,0.0333 -0.7974,0.420659 -1.74733,0.860788 l -1.727145,0.800233 -0.02699,11.845262 -0.02699,11.845262 -5.079246,0.01377 c -2.793585,0.0076 -5.095565,-0.0025 -5.115512,-0.0225 z m 7.713498,-28.786074 -1.79436,-1.773014 -0.372706,-0.09348 c -0.544176,-0.136483 -0.999271,-0.372231 -1.255795,-0.650527 -0.204781,-0.22216 -0.223696,-0.267373 -0.223696,-0.534678 0,-0.251331 0.03043,-0.337562 0.218476,-0.619167 0.241134,-0.361102 0.598065,-0.68519 0.969625,-0.880407 0.352503,-0.185203 0.821418,-0.178405 1.115441,0.01617 0.270677,0.179125 0.576474,0.633552 0.758977,1.127873 0.137811,0.37327 0.156933,0.394791 1.494468,1.681817 2.545421,2.449299 2.794578,2.703295 2.719323,2.772125 -0.06941,0.06348 -1.702767,0.726793 -1.788885,0.726471 -0.02558,-1.08e-4 -0.853969,-0.79803 -1.840868,-1.773187 z"
       id="path2999"
       inkscape:connector-curvature="0"
       sodipodi:nodetypes="sssssssssssssssssssssssssssssssssssssscsssscccssscssssssssscs" />
    <path
       style="fill:#a7a6a6"
       d="M 29.991251,63.019023 C 23.923244,62.534704 18.324982,60.425391 13.529795,56.816679 10.424947,54.480058 7.7693201,51.58123 5.7396903,48.313147 3.0549242,43.990173 1.4849602,39.132886 1.1066042,33.978913 0.98852553,32.370444 1.0479234,29.850863 1.2440642,28.148039 1.8174523,23.170089 3.6788064,18.194919 6.4958182,14.110748 11.360907,7.0572264 18.816669,2.295245 27.156798,0.91461789 c 1.824344,-0.30200238 3.182539,-0.40924404 5.183,-0.40924404 2.00046,0 3.358655,0.10724166 5.182999,0.40924404 11.81561,1.95595911 21.558428,10.63010711 24.88836,22.15840011 0.845768,2.928064 1.215338,5.579512 1.215338,8.719317 0,1.50531 -0.04625,2.387926 -0.190961,3.644297 -0.521497,4.527437 -2.076456,8.981195 -4.495626,12.876515 -3.469166,5.585999 -8.699384,10.000636 -14.782008,12.476959 -3.051609,1.242355 -6.173305,1.96926 -9.598873,2.235153 -0.814556,0.06322 -3.747685,0.05922 -4.567776,-0.0062 z m 5.035045,-5.198937 c 2.519449,-0.280217 4.627979,-0.796557 6.896652,-1.688859 8.648566,-3.40161 14.862176,-11.180718 16.271185,-20.370657 0.231108,-1.507335 0.275385,-2.145393 0.275385,-3.968235 0,-1.822841 -0.04428,-2.460899 -0.275385,-3.968234 C 56.78527,18.635117 50.570615,10.8547 41.922948,7.4534457 39.597681,6.5388843 37.351017,6.0002848 34.742334,5.732016 c -0.889203,-0.091443 -3.91587,-0.091443 -4.805073,0 -3.268057,0.336077 -6.14824,1.1421107 -8.99026,2.5159711 C 13.374217,11.908745 7.9637209,19.0907 6.5627092,27.341862 c -0.293313,1.727444 -0.3490097,2.437678 -0.3490097,4.450473 0,2.012626 0.053891,2.699894 0.3494913,4.457016 0.9812654,5.832897 4.0775092,11.330641 8.5949632,15.261369 4.153278,3.61385 9.439993,5.87827 14.779107,6.330227 0.371179,0.03142 0.784199,0.06633 0.917823,0.07757 0.567501,0.04774 3.473576,-0.02083 4.171212,-0.09843 z"
       id="path2997"
       inkscape:connector-curvature="0" />
  </g>
</svg>
