<?xml version="1.0" encoding="UTF-8" standalone="no"?>
<!-- Created with Inkscape (http://www.inkscape.org/) -->

<svg
   xmlns:dc="http://purl.org/dc/elements/1.1/"
   xmlns:cc="http://creativecommons.org/ns#"
   xmlns:rdf="http://www.w3.org/1999/02/22-rdf-syntax-ns#"
   xmlns:svg="http://www.w3.org/2000/svg"
   xmlns="http://www.w3.org/2000/svg"
   xmlns:sodipodi="http://sodipodi.sourceforge.net/DTD/sodipodi-0.dtd"
   xmlns:inkscape="http://www.inkscape.org/namespaces/inkscape"
   id="svg2985"
   version="1.1"
   inkscape:version="0.48.4 r9939"
   width="64"
   height="64"
   sodipodi:docname="agenda_limousin_conference.svg">
  <metadata
     id="metadata2991">
    <rdf:RDF>
      <cc:Work
         rdf:about="">
        <dc:format>image/svg+xml</dc:format>
        <dc:type
           rdf:resource="http://purl.org/dc/dcmitype/StillImage" />
        <dc:title></dc:title>
      </cc:Work>
    </rdf:RDF>
  </metadata>
  <defs
     id="defs2989" />
  <sodipodi:namedview
     pagecolor="#ffffff"
     bordercolor="#666666"
     borderopacity="1"
     objecttolerance="10"
     gridtolerance="10"
     guidetolerance="10"
     inkscape:pageopacity="0"
     inkscape:pageshadow="2"
     inkscape:window-width="1855"
     inkscape:window-height="1056"
     id="namedview2987"
     showgrid="false"
     inkscape:zoom="5.5225778"
     inkscape:cx="101.16862"
     inkscape:cy="12.112516"
     inkscape:window-x="65"
     inkscape:window-y="24"
     inkscape:window-maximized="1"
     inkscape:current-layer="svg2985" />
  <path
     sodipodi:type="arc"
     style="fill:#ffffff;fill-opacity:1;fill-rule:evenodd;stroke:none"
     id="path3022"
     sodipodi:cx="629.12592"
     sodipodi:cy="598.80298"
     sodipodi:rx="366.13828"
     sodipodi:ry="399.1279"
     d="m 995.26419,598.80298 a 366.13828,399.1279 0 1 1 -732.27655,0 366.13828,399.1279 0 1 1 732.27655,0 z"
     transform="matrix(0.06892579,0,0,0.0653029,-11.418182,-6.92667)" />
  <g
     id="g2995"
     transform="matrix(0.05398958,0,0,0.05398958,0.67490899,-0.08851153)">
    <path
       style="fill:#d2d1d1"
       d="M 534.53006,1132.947 C 305.78241,1122.1634 160.29674,1005.2145 76.259932,792.17213 22.251402,655.25462 26.19089,525.54789 80.193828,388.82787 142.72703,230.51165 245.59386,112.14298 406.08023,56.981098 450.21173,41.812351 502.51732,44.139666 552.0847,39.268245 c 24.45456,-2.403364 76.13611,2.847354 100.37158,5.24524 49.74905,4.922226 74.30599,6.509105 118.40611,21.667065 144.05763,49.51505 264.39801,155.25479 331.86841,291.6036 30.4991,61.63475 30.8891,118.56206 38.6599,186.26283 12.7462,111.04819 -14.7042,195.62512 -64.4247,296.56778 -56.131,113.95711 -137.68908,198.14314 -252.17911,254.80604 -64.40982,31.8774 -133.47825,35.2253 -206.81421,42.2158 -16.01403,1.5265 -67.23646,-3.9256 -83.44262,-4.6896 z M 409.42588,983.11994 c 0.29915,-0.48404 1.44773,-61.30607 2.55241,-135.16007 1.10468,-73.854 2.23648,-134.50797 2.51511,-134.7866 0.27863,-0.27863 0.76897,-0.24423 1.08965,0.0765 0.32068,0.32068 23.03694,60.75154 50.48058,134.2908 27.44364,73.53927 50.41137,134.32689 51.03939,135.08362 C 518.03773,983.75038 525.57038,984 558.62244,984 594.32881,984 599,983.82168 599,982.45861 599,981.61085 572.18329,898.79408 539.40731,798.42135 503.91686,689.73588 480.07536,615.23277 480.45929,614.21274 c 0.35458,-0.94201 18.50879,-35.14443 40.3427,-76.00538 29.37774,-54.97882 40.09625,-74.19073 41.22987,-73.90066 0.84253,0.21558 23.34253,14.94714 50,32.73679 26.65748,17.78965 49.59314,32.50638 50.96814,32.70384 2.36361,0.33943 45.48948,-14.88256 47.35197,-16.71366 0.46859,-0.46069 -5.20691,-7.51923 -12.61221,-15.68564 C 605.8858,396.05341 526.61147,309.4392 525.53043,309.19412 c -2.75124,-0.62371 -37.86607,30.97416 -68.04656,61.2313 -51.39973,51.53026 -84.39419,94.41481 -105.46229,137.07458 -12.69,25.69536 -17.89647,42.69544 -19.97059,65.20765 -3.53791,38.39991 -4.92498,127.29985 -3.874,248.29235 0.70016,80.60456 2.37315,160.46309 3.39629,162.11857 0.71148,1.15119 77.14114,1.15253 77.8526,10e-4 z M 623.57775,343.56369 c 10.65519,-3.37926 19.44065,-8.7219 27.35234,-16.6336 7.86768,-7.86767 13.19672,-16.60197 16.73587,-27.43009 2.13039,-6.51795 2.63427,-10.03782 2.71991,-19 0.1162,-12.16034 -1.13807,-18.62443 -5.50023,-28.34633 -10.87665,-24.24065 -35.17189,-40.11894 -61.38564,-40.11894 -25.16419,0 -48.8588,14.6877 -59.95285,37.16329 -7.24038,14.66839 -9.10649,28.32197 -5.95823,43.59414 3.04408,14.76677 12.13997,29.99341 23.13069,38.72105 7.13754,5.66787 19.95354,11.95914 27.28039,13.39172 3.025,0.59146 6.4,1.28322 7.5,1.53725 4.89759,1.13102 20.46874,-0.46531 28.07775,-2.87849 z"
       id="path3001"
       inkscape:connector-curvature="0"
       sodipodi:nodetypes="ssssssssssssscsscscssscssssssssssssccssssssssssss" />
    <path
       style="fill:#b8b8b8"
       d="m 560.78286,1145.7542 c -36.25919,-1.131 -75.39085,-5.8372 -110.77245,-13.9831 C 211.00479,1076.7451 64.356405,901.3335 35.563404,658.07072 30.64212,616.49238 22.278556,569.15405 27.199839,527.57571 39.564077,423.11426 86.367088,345.73044 150.57844,263.30783 178.1937,227.8605 213.08932,189.84168 248.51651,161.65643 331.47408,95.656879 389.60874,63.218755 495.69716,50.721885 c 42.99388,-5.064539 106.3993,-7.314992 176.02997,1.87066 106.21259,14.011524 163.35298,40.323553 246.25137,106.276035 35.42719,28.18525 74.03992,66.20407 101.6552,101.6514 64.1956,82.40241 96.1338,160.72327 108.5115,265.19716 5.2079,43.95717 9.6538,98.82332 4.1129,142.85857 -23.1785,184.2091 -122.9399,323.84255 -286.01235,414.61339 -72.55609,40.3869 -119.40454,45.9735 -202.01862,51.4379 -21.82647,1.4437 -58.63914,11.901 -83.44427,11.1272 z m 61.26725,-73.7935 c 102.6851,-7.9344 196.39267,-46.0739 275.44843,-112.10895 12.80411,-10.69524 39.15975,-36.43947 50.28428,-49.11776 29.35999,-33.46072 51.46931,-66.34265 71.09398,-105.73399 25.6923,-51.57057 40.6323,-102.66762 47.805,-163.5 1.381,-11.71228 1.7686,-22.89053 1.7686,-51 0,-38.41299 -0.8667,-50.08866 -5.98,-80.55445 C 1046.1684,412.816 1000.7803,323.79201 931.54484,253.14936 866.03478,186.30777 785.19764,140.78083 695.3766,120.14095 654.77725,110.81167 620.37333,107.39362 576.11285,108.29202 539.94524,109.02615 513.14121,112.1772 480.39386,119.54464 358.13066,147.05117 251.84808,220.77009 182.7415,326 c -36.85371,56.11784 -61.14143,117.98603 -72.21189,183.94555 -5.11329,30.46579 -5.98005,42.14146 -5.98005,80.55445 0,38.47943 0.86403,50.07455 6.02041,80.79292 14.8757,88.61985 54.02205,170.34836 114.73608,239.54235 12.40677,14.13962 39.06779,39.83728 54.2799,52.31855 78.87077,64.71208 172.13457,101.68058 275.41405,109.17038 11.20151,0.8124 54.89862,0.5755 67.05011,-0.3635 z m -1.37837,-88.62229 C 620.30228,982.96895 620,898.36667 620,795.33333 620,633.92889 619.80291,608 618.57606,608 c -0.78316,0 -11.37247,3.86765 -23.53179,8.59479 -12.15932,4.72713 -22.65605,8.37723 -23.32606,8.11132 -1.57642,-0.62562 -18.90012,-38.53187 -18.51254,-40.50757 0.45352,-2.31184 304.93667,-115.5076 306.39612,-113.90694 1.52943,1.67742 15.71323,42.26335 15.25277,43.64472 -0.20563,0.61688 -14.76952,7.7915 -32.36421,15.9436 L 810.5,544.70191 810,764.10095 809.5,983.5 l -94.07826,0.25507 c -51.74304,0.14029 -94.38054,-0.0472 -94.75,-0.41666 z m 142.87014,-533.17833 -33.23531,-32.83993 -6.90329,-1.73138 C 713.32399,413.06082 704.89469,408.69428 700.14333,403.53966 696.35036,399.42478 696,398.58735 696,393.6363 c 0,-4.65517 0.56357,-6.25235 4.04663,-11.46827 4.46632,-6.68836 11.07742,-12.69115 17.9595,-16.30697 6.52908,-3.43035 15.21437,-3.30445 20.66029,0.29949 5.01351,3.31778 10.6775,11.73472 14.05784,20.89058 2.55255,6.91373 2.90674,7.31234 27.68069,31.15076 47.14651,45.36615 51.76142,50.07068 50.36754,51.34555 -1.28556,1.17579 -31.5388,13.46173 -33.13389,13.45578 -0.47377,-0.002 -15.81729,-14.78119 -34.09672,-32.84314 z"
       id="path2999"
       inkscape:connector-curvature="0"
       sodipodi:nodetypes="sssssssssssssssssssssssssssssssssssssscsssscccssscssssssssscs" />
    <path
       style="fill:#a7a6a6"
       d="M 543,1168.8836 C 430.60782,1159.913 326.91628,1120.8441 238.09939,1054.0032 180.5911,1010.7241 131.40334,957.03173 93.810349,896.5 44.082863,816.42948 15.003844,726.46235 7.9958985,631 5.8088346,601.20778 6.9090079,554.53987 10.541946,523 21.162293,430.79795 55.638466,338.64739 107.81542,263 197.92705,132.35402 336.02336,44.152159 490.5,18.580056 524.29067,12.98634 549.44729,11 586.5,11 c 37.05271,0 62.20933,1.98634 96,7.580056 C 901.34982,54.808511 1081.8072,215.47188 1143.4845,429 c 15.6654,54.23386 22.5106,103.34424 22.5106,161.5 0,27.88149 -0.8566,44.22938 -3.537,67.5 -9.6592,83.8576 -38.4603,166.35053 -83.2684,238.5 -64.2562,103.46439 -161.13078,185.2327 -273.79372,231.0994 -56.52218,23.011 -114.34252,36.4748 -177.7912,41.3997 -15.08729,1.171 -69.41497,1.0969 -84.60478,-0.1155 z m 93.25958,-96.2952 C 682.92503,1067.3982 721.97942,1057.8345 764,1041.3072 924.18954,978.30227 1039.2786,834.2169 1065.3764,664 c 4.2806,-27.919 5.1007,-39.73716 5.1007,-73.5 0,-33.76284 -0.8201,-45.581 -5.1007,-73.5 C 1039.2813,346.80079 924.17289,202.69118 764,139.69283 720.93119,122.75324 679.31827,112.77725 631,107.80835 c -16.4699,-1.69371 -72.5301,-1.69371 -89,0 -60.53126,6.22485 -113.87827,21.15428 -166.51843,46.60105 -140.26381,67.80489 -240.47752,200.82973 -266.42719,353.65852 -5.43277,31.99587 -6.46439,45.1509 -6.46439,82.43208 0,37.27803 0.99818,50.00767 6.47331,82.55326 18.17509,108.03745 75.524,209.86718 159.19671,282.67249 C 345.1874,1022.6618 443.10843,1064.6036 542,1072.9748 c 6.875,0.582 14.525,1.2285 17,1.4367 10.51131,0.8842 64.33789,-0.3859 77.25958,-1.8231 z"
       id="path2997"
       inkscape:connector-curvature="0" />
  </g>
</svg>
