<?xml version="1.0" encoding="UTF-8" standalone="no"?>
<!-- Created with Inkscape (http://www.inkscape.org/) -->

<svg
   xmlns:dc="http://purl.org/dc/elements/1.1/"
   xmlns:cc="http://creativecommons.org/ns#"
   xmlns:rdf="http://www.w3.org/1999/02/22-rdf-syntax-ns#"
   xmlns:svg="http://www.w3.org/2000/svg"
   xmlns="http://www.w3.org/2000/svg"
   xmlns:sodipodi="http://sodipodi.sourceforge.net/DTD/sodipodi-0.dtd"
   xmlns:inkscape="http://www.inkscape.org/namespaces/inkscape"
   id="svg3425"
   version="1.1"
   inkscape:version="0.48.4 r9939"
   width="64"
   height="64"
   sodipodi:docname="symbole_2016_permanence.svg">
  <metadata
     id="metadata3431">
    <rdf:RDF>
      <cc:Work
         rdf:about="">
        <dc:format>image/svg+xml</dc:format>
        <dc:type
           rdf:resource="http://purl.org/dc/dcmitype/StillImage" />
        <dc:title></dc:title>
      </cc:Work>
    </rdf:RDF>
  </metadata>
  <defs
     id="defs3429" />
  <sodipodi:namedview
     pagecolor="#ffffff"
     bordercolor="#666666"
     borderopacity="1"
     objecttolerance="10"
     gridtolerance="10"
     guidetolerance="10"
     inkscape:pageopacity="0"
     inkscape:pageshadow="2"
     inkscape:window-width="1855"
     inkscape:window-height="1056"
     id="namedview3427"
     showgrid="false"
     inkscape:zoom="3.7215906"
     inkscape:cx="150.78799"
     inkscape:cy="48.737956"
     inkscape:window-x="65"
     inkscape:window-y="24"
     inkscape:window-maximized="1"
     inkscape:current-layer="svg3425" />
  <path
     sodipodi:type="arc"
     style="fill:#ffffff;fill-opacity:1;fill-rule:evenodd;stroke:none"
     id="path3443"
     sodipodi:cx="574.33124"
     sodipodi:cy="611.54425"
     sodipodi:rx="439.76807"
     sodipodi:ry="491.44812"
     d="m 1014.0993,611.54425 a 439.76807,491.44812 0 1 1 -879.53613,0 439.76807,491.44812 0 1 1 879.53613,0 z"
     transform="matrix(0.05361285,0,0,0.05361285,0.69353388,0.50598331)" />
  <g
     id="g3435"
     transform="matrix(0.05361285,0,0,0.05361285,0.7674655,0.43205063)">
    <path
       style="fill:#d3d2d2"
       d="m 568.30076,1115.8508 c -61.35633,-3.7369 -107.22413,-12.3422 -160.42733,-30.098 -85.49406,-28.5325 -122.78007,-27.7723 -186.2901,-93.37823 C 132.62449,900.48 77.11992,784.95507 61.21938,658.59962 c -3.159029,-25.10359 -3.97622,-39.94733 -3.963808,-72 0.01243,-32.08446 0.845822,-47.22257 3.963808,-72 12.746015,-101.28766 50.9856,-195.91209 111.94113,-277 C 277.48125,98.823828 380.00628,61.55812 553.04981,51.934242 760.34416,40.405493 905.24436,89.942245 1019.6386,264.69924 c 91.8523,140.32037 118.4898,314.89778 72.7055,476.5 -32.0444,113.10522 -34.7804,164.4287 -126.04334,240.76142 -12.93031,10.8149 -36.90339,28.51924 -52.5,38.77164 -81.66388,53.6815 -172.34932,84.9849 -271.5,93.7184 -12.34012,1.0869 -63.30821,2.0513 -74,1.4001 z M 733.5,874.64251 733.5,853.78503 702,839.0316 670.5,824.27818 670,643.38909 669.5,462.5 l -106,0 -106,0 0,11.9023 0,11.9023 30.5,19.66283 30.5,19.66284 0,162.93486 0,162.93487 -23.5,0.5 -23.5,0.5 -0.27142,20.473 c -0.14927,11.26015 -0.0503,21.04932 0.22005,21.75372 0.39667,1.03372 25.71361,1.23179 131.27141,1.027 L 733.5,895.5 z M 614.46394,398.44737 c 13.65177,-3.71163 26.02172,-11.10594 36.14846,-21.60827 10.09728,-10.47176 16.2174,-21.14517 20.00989,-34.89695 2.46609,-8.94221 2.46609,-29.94209 0,-38.8843 -8.04883,-29.18553 -31.18986,-51.1907 -60.12229,-57.17122 -26.79967,-5.53966 -53.13752,2.59564 -72.1124,22.27427 -10.09728,10.47176 -16.2174,21.14517 -20.00989,34.89695 -2.46609,8.94221 -2.46609,29.94209 0,38.8843 6.34242,22.99798 22.77892,42.45297 43.99269,52.07176 5.93652,2.69175 14.57956,5.28501 21.1296,6.33974 5.64195,0.9085 24.99265,-0.28281 30.96394,-1.90628 z"
       id="path3441"
       inkscape:connector-curvature="0"
       sodipodi:nodetypes="ssssssssssssssccccccccccccccccscsccsssssssssss" />
    <path
       style="fill:#c8c7c7"
       d="M 506.85305,1118.2393 C 268.06719,1105.2252 150.00387,999.38965 76.1056,770.95019 c -13.439765,-41.54594 -22.502489,-87.45915 -26.351319,-133.5 -1.603532,-19.18193 -1.596021,-70.54631 0.01316,-90 C 62.890455,388.80371 103.19669,287.90989 224.75095,186.499 317.02209,109.51858 404.30069,72.253157 527.34866,61.561621 c 18.68882,-1.623857 76.21157,-5.524239 94.90039,-3.900382 102.10365,8.871702 192.66753,40.189385 276,95.442911 139.11235,92.23838 208.99705,200.03909 231.02005,364.74642 3.8636,28.8949 4.9542,46.12655 4.9684,78.5 0.014,32.22009 -1.0694,49.34054 -4.9684,78.5 -21.9114,163.87248 -121.7008,274.21487 -260.21512,367.39693 -104.33447,70.1885 -235.17501,82.9149 -362.20093,75.9918 z M 615.5,1071.4868 c 6.6,-0.3016 18.075,-1.2375 25.5,-2.0796 198.62634,-22.5286 363.4208,-166.30652 412.5163,-359.9072 10.2822,-40.5462 14.6397,-75.96664 14.6397,-119 0,-43.03336 -4.3575,-78.4538 -14.6397,-119 C 1013.3393,313.06788 894.59615,185.24498 739.5,133.47222 652.83715,104.54323 559.91904,100.77777 471,122.59139 317.31591,160.29318 191.56795,272.04015 135.20321,421 107.97656,492.95419 98.695704,573.52583 108.53729,652.5 121.06416,753.02239 167.63565,850.23336 238.56843,923.92047 317.53126,1005.9494 419.76311,1056.5073 533,1069.529 c 25.92227,2.9809 48.42804,3.515 82.5,1.9578 z"
       id="path3439"
       inkscape:connector-curvature="0"
       sodipodi:nodetypes="sssssssssssssssssssssssss" />
    <path
       style="fill:#a7a6a6"
       d="m 553,1169.8778 c -92.88801,-5.305 -183.95482,-33.1872 -263.5,-80.6767 C 225.16004,1050.7893 166.94982,998.39634 122.06643,938.5 8.4333626,786.85802 -23.886779,590.27515 35.081504,409.42598 57.871274,339.53229 93.402639,275.77488 142.59722,216.5 156.44397,199.81595 195.71547,160.55582 212.5,146.61746 302.71988,71.696222 406.34705,27.037148 520.33387,13.953636 656.71102,-1.6998572 793.6578,31.2917 908,107.34546 c 33.22502,22.09934 58.04856,42.58953 88.55678,73.09776 23.57222,23.57224 37.14912,39.06666 54.37682,62.05678 100.7661,134.47122 137.9856,304.32255 102.991,470 -30.9255,146.41259 -119.9792,277.18624 -245.9246,361.1355 -104.75641,69.8257 -228.78567,103.4506 -355,96.2423 z m 70.5,-96.9129 c 118.32065,-10.0024 222.93091,-58.2629 305.50597,-140.94085 72.53273,-72.62309 120.02913,-166.13207 135.45663,-266.68136 4.3873,-28.59436 5.0374,-38.25285 5.0374,-74.84269 0,-43.52532 -2.1148,-64.88835 -10.1464,-102.49657 C 1018.8528,298.35653 865.03555,149.31285 674,114.60889 625.83858,105.85977 574.31301,104.47449 525,110.60298 323.22519,135.679 156.15384,288.96025 113.64635,488.00343 105.61477,525.61165 103.5,546.97468 103.5,590.5 c 0,35.64674 0.63122,45.54409 4.6238,72.5 19.64946,132.6633 95.93196,253.21351 207.971,328.65925 69.4987,46.79955 146.85434,73.90025 231.9052,81.24525 13.8851,1.1992 61.57841,1.2373 75.5,0.06 z"
       id="path3437"
       inkscape:connector-curvature="0" />
  </g>
</svg>
