<?xml version="1.0" encoding="UTF-8" standalone="no"?>
<!-- Created with Inkscape (http://www.inkscape.org/) -->

<svg
   xmlns:dc="http://purl.org/dc/elements/1.1/"
   xmlns:cc="http://creativecommons.org/ns#"
   xmlns:rdf="http://www.w3.org/1999/02/22-rdf-syntax-ns#"
   xmlns:svg="http://www.w3.org/2000/svg"
   xmlns="http://www.w3.org/2000/svg"
   xmlns:sodipodi="http://sodipodi.sourceforge.net/DTD/sodipodi-0.dtd"
   xmlns:inkscape="http://www.inkscape.org/namespaces/inkscape"
   id="svg3245"
   version="1.1"
   inkscape:version="0.48.4 r9939"
   width="1181"
   height="1181"
   sodipodi:docname="symbole_2016_marche.png">
  <metadata
     id="metadata3251">
    <rdf:RDF>
      <cc:Work
         rdf:about="">
        <dc:format>image/svg+xml</dc:format>
        <dc:type
           rdf:resource="http://purl.org/dc/dcmitype/StillImage" />
        <dc:title></dc:title>
      </cc:Work>
    </rdf:RDF>
  </metadata>
  <defs
     id="defs3249" />
  <sodipodi:namedview
     pagecolor="#ffffff"
     bordercolor="#666666"
     borderopacity="1"
     objecttolerance="10"
     gridtolerance="10"
     guidetolerance="10"
     inkscape:pageopacity="0"
     inkscape:pageshadow="2"
     inkscape:window-width="1855"
     inkscape:window-height="1056"
     id="namedview3247"
     showgrid="false"
     inkscape:zoom="0.7251667"
     inkscape:cx="1030.9349"
     inkscape:cy="620.35627"
     inkscape:window-x="65"
     inkscape:window-y="24"
     inkscape:window-maximized="1"
     inkscape:current-layer="svg3245" />
  <path
     sodipodi:type="arc"
     style="fill:#ffffff;fill-opacity:1;fill-rule:evenodd;stroke:none"
     id="path3261"
     sodipodi:cx="591.58813"
     sodipodi:cy="576.31146"
     sodipodi:rx="497.81656"
     sodipodi:ry="521.94897"
     d="m 1089.4047,576.31146 a 497.81656,521.94897 0 1 1 -995.633124,0 497.81656,521.94897 0 1 1 995.633124,0 z" />
  <g
     id="g3255"
     transform="translate(8.2739587,-2.7579877)">
    <path
       style="fill:#d2d1d1"
       d="M 553.5,1119.2548 C 317.1245,1105.8564 158.57347,1022.0975 82.198925,798.04065 36.569849,664.18055 41.236165,516.84199 95.208105,387.27688 149.84071,256.12578 206.02882,175.80308 333.40038,112.85918 c 127.38979,-62.952904 275.57983,-76.801492 413,-38.595484 227.99516,63.387964 344.82192,216.600964 371.80442,451.696594 8.6249,75.14878 2.05,155.48457 -18.5366,226.4899 C 1067.4216,863.6719 1051.39,906.6451 964.12906,981.00694 849.98961,1078.274 703.08306,1127.7336 553.5,1119.2548 z m 261,-252.63643 c 27.08988,-3.80907 48.07301,-9.91968 69.5,-20.23945 77.03754,-37.10319 121.6351,-117.76155 133.1865,-240.87892 1.8084,-19.27462 1.8187,-79.89501 0.014,-81.70016 C 1016.1539,522.75319 992.20758,522.40261 894.26504,522 L 772.62933,521.5 769.41475,505 C 760.97763,461.69341 747.52823,421.78011 730.32675,389 701.0983,333.30062 662.35806,300.01933 614.95667,289.88691 602.24425,287.16953 574.31519,286.62745 562,288.85906 500.0677,300.0817 452.36195,352.88753 423.49609,442.17 c -5.81617,17.98948 -12.66154,45.77725 -15.53685,63.06953 -1.2127,7.29326 -2.52059,13.60893 -2.90642,14.03482 -0.38583,0.42589 -53.43578,1.81861 -117.88876,3.09493 -64.45299,1.27632 -117.45625,2.58958 -117.78504,2.91836 -1.04815,1.04815 -2.2797,27.48966 -2.31542,49.71236 -0.13663,84.99554 13.59407,159.07856 38.57723,208.14062 9.19979,18.06661 18.49827,31.13255 31.29006,43.96784 16.55476,16.61106 29.23542,24.65649 49.60478,31.47251 17.72907,5.93252 21.29434,6.14016 128.96433,7.51103 53.9,0.68626 114.2,1.54772 134,1.91435 19.8,0.36663 84.825,0.58396 144.5,0.48296 95.72802,-0.16201 109.91257,-0.38225 120.5,-1.87094 z M 469.44778,521.9155 c -0.80488,-1.30232 0.15686,-14.32691 2.17205,-29.4155 6.04539,-45.26448 19.50005,-85.79221 37.51447,-113 6.37718,-9.63166 20.06717,-24.09913 28.52218,-30.142 31.69273,-22.65106 77.38249,-22.56388 108.34352,0.20673 34.49086,25.36667 54.73793,78.97778 58.58355,155.12022 0.36626,7.25173 0.37621,14.33923 0.0221,15.75 L 703.9619,523 587.03996,523 c -82.94241,0 -117.11671,-0.31517 -117.59218,-1.0845 z"
       id="path3259"
       inkscape:connector-curvature="0"
       sodipodi:nodetypes="sssssssssssscscsssssssscssssssssssssssccss" />
    <path
       style="fill:#a7a6a6"
       d="M 549,1169.9215 C 489.98563,1166.2143 425.83694,1151.8121 372,1130.1827 216.33482,1067.6432 96.290236,943.29616 39.634658,785.90532 4.6356461,688.67705 -3.3454989,578.86195 17.147689,476.5 47.725583,323.7657 138.17168,190.14507 268.9673,104.47405 342.51382,56.301139 425.60232,25.690827 513,14.570909 c 26.33348,-3.350502 38.45423,-4.01469 73.5,-4.027624 35.15498,-0.01297 46.72623,0.621102 73.5,4.027624 156.37735,19.896447 297.28705,102.213711 392.0914,229.053711 110.3868,147.68794 143.611,340.1266 89.4104,517.87538 -32.6811,107.17638 -98.8591,205.6761 -186.51033,277.6031 -95.05022,77.9987 -208.7804,122.7675 -332.49147,130.8821 -17.16616,1.1259 -55.08546,1.0931 -73.5,-0.064 z m 69.17045,-96.9785 c 104.13396,-7.1805 197.83322,-44.8532 279.51652,-112.38234 13.92303,-11.51043 47.36326,-44.95066 58.87369,-58.87369 36.22427,-43.8169 63.13644,-89.70724 82.21534,-140.19268 41.5508,-109.94914 41.5508,-232.03944 0,-341.98858 C 1003.353,325.77157 938.50705,244.27425 855,188.53916 757.29696,123.32925 641.35109,96.148074 524.5,111.0601 307.44032,138.7603 134.69118,311.43349 107.03369,528.34289 c -22.710196,178.10918 53.3143,351.8396 199.78004,456.53532 89.17576,63.74409 201.85748,95.61519 311.35672,88.06479 z"
       id="path3257"
       inkscape:connector-curvature="0" />
  </g>
</svg>
