<?xml version="1.0" encoding="UTF-8" standalone="no"?>
<!-- Created with Inkscape (http://www.inkscape.org/) -->

<svg
   xmlns:dc="http://purl.org/dc/elements/1.1/"
   xmlns:cc="http://creativecommons.org/ns#"
   xmlns:rdf="http://www.w3.org/1999/02/22-rdf-syntax-ns#"
   xmlns:svg="http://www.w3.org/2000/svg"
   xmlns="http://www.w3.org/2000/svg"
   xmlns:sodipodi="http://sodipodi.sourceforge.net/DTD/sodipodi-0.dtd"
   xmlns:inkscape="http://www.inkscape.org/namespaces/inkscape"
   id="svg4168"
   version="1.1"
   inkscape:version="0.48.4 r9939"
   viewBox="0 0 64 64"
   sodipodi:docname="symbole_2016_evenement.svg">
  <metadata
     id="metadata4174">
    <rdf:RDF>
      <cc:Work
         rdf:about="">
        <dc:format>image/svg+xml</dc:format>
        <dc:type
           rdf:resource="http://purl.org/dc/dcmitype/StillImage" />
        <dc:title></dc:title>
      </cc:Work>
    </rdf:RDF>
  </metadata>
  <defs
     id="defs4172" />
  <sodipodi:namedview
     pagecolor="#ffffff"
     bordercolor="#666666"
     borderopacity="1"
     objecttolerance="10"
     gridtolerance="10"
     guidetolerance="10"
     inkscape:pageopacity="0"
     inkscape:pageshadow="2"
     inkscape:window-width="1855"
     inkscape:window-height="1056"
     id="namedview4170"
     showgrid="false"
     inkscape:zoom="10.526248"
     inkscape:cx="19.428866"
     inkscape:cy="31.940976"
     inkscape:window-x="65"
     inkscape:window-y="24"
     inkscape:window-maximized="1"
     inkscape:current-layer="svg4168" />
  <path
     sodipodi:type="arc"
     style="fill:#ffffff;fill-opacity:1;fill-rule:evenodd;stroke:none"
     id="path4188"
     sodipodi:cx="642.58795"
     sodipodi:cy="578.39099"
     sodipodi:rx="519.72589"
     sodipodi:ry="538.25269"
     d="m 1162.3138,578.39099 a 519.72589,538.25269 0 1 1 -1039.45174,0 519.72589,538.25269 0 1 1 1039.45174,0 z"
     transform="matrix(0.05445438,0,0,0.05445438,-2.7293844,0.44008137)" />
  <g
     id="g4178"
     transform="matrix(0.05445438,0,0,0.05445438,-0.03048558,0.00240939)">
    <path
       style="fill:#e7e7e7"
       d="m 568.30591,1111.6787 c -104.54269,-7.4633 -201.10387,-40.2851 -286.5,-97.3832 C 152.56372,927.88071 89.564517,854.76939 60.975003,703.25799 c -7.971143,-42.24342 -9.529713,-60.23376 -9.529713,-110 0,-42.88283 0.584304,-52.62799 5.006526,-83.5 C 87.845214,290.59726 180.02384,144.97729 391.11977,77.051229 429.81255,64.600736 466.96,56.831427 512.45208,51.674838 c 22.31362,-2.529279 92.68638,-2.529279 115,0 33.16952,3.75981 58.38153,8.236046 86.33231,15.327762 171.37751,43.48217 283.71684,135.65738 357.32391,297.80122 21.5411,47.45128 37.9729,103.85847 45.4399,155.98611 4.4222,30.87201 5.0065,40.61717 5.0065,83.5 0,42.88283 -0.5843,52.62799 -5.0065,83.5 -31.2988,218.49976 -119.90716,327.85247 -330.26516,396.30957 -38.9947,12.6901 -77.00906,20.7283 -121.97713,25.7923 -13.87934,1.563 -81.50432,2.8217 -96,1.7869 z M 288.759,764.25 288.5,712.5 l -50,0 -50,0 -0.259,51.75 -0.259,51.75 50.518,0 50.518,0 z M 463.5,764 l 0,-51.5 -50.5,0 -50.5,0 -0.26016,50.5 c -0.1431,27.775 -0.0431,51.06667 0.22217,51.75926 0.38075,0.99406 11.07136,1.20467 50.76016,1 L 463.5,815.5 z m 174.259,0.25 -0.259,-51.75 -50,0 -50,0 -0.259,51.75 -0.259,51.75 50.518,0 50.518,0 z m 175.00033,0.8637 c 0.18823,-36.57358 -0.053,-50.76268 -0.88014,-51.75926 -0.94336,-1.13669 -9.67866,-1.32834 -50.75932,-1.1137 L 711.5,712.5 711.23984,763 c -0.1431,27.775 -0.0431,51.06667 0.22217,51.75926 0.38075,0.99406 11.07136,1.20467 50.76016,1 L 812.5,815.5 z M 986.759,764.25 986.5,712.5 l -50,0 -50,0 -0.259,51.75 -0.259,51.75 50.518,0 50.518,0 z M 289,589.5 l 0,-51.5 -50.5,0 -50.5,0 0,51.5 0,51.5 50.5,0 50.5,0 z m 174.75908,0.25 -0.25908,-51.25 -50.5,0 -50.5,0 -0.26021,50 c -0.14312,27.5 -0.0447,50.5625 0.21861,51.25 0.37433,0.9772 11.50897,1.25 51.0193,1.25 l 50.54046,0 z M 638,589.5 l 0,-51.5 -50.5,0 -50.5,0 0,51.5 0,51.5 50.5,0 50.5,0 z m 349,0 0,-51.5 -50.5,0 -50.5,0 0,51.5 0,51.5 50.5,0 50.5,0 z M 289,415 l 0,-52 -50.5,0 -50.5,0 0,51.33333 c 0,28.23334 0.3,51.63334 0.66667,52 C 189.03333,466.7 211.75833,467 239.16667,467 L 289,467 z m 178.75885,-1.25885 0.25884,-52.75884 -52.75884,0.25884 L 362.5,361.5 362.23993,413 c -0.14304,28.325 -0.0431,52.06652 0.22204,52.75893 0.38078,0.99431 11.4708,1.20451 52.76007,1 L 467.5,466.5 z M 638,415 l 0,-52 -50.5,0 -50.5,0 0,52 0,52 50.5,0 50.5,0 z m 174.5,0 0,-51.5 -50.5,0 -50.5,0 -0.26016,50.5 c -0.1431,27.775 -0.0431,51.06667 0.22217,51.75926 0.38075,0.99406 11.07136,1.20467 50.76016,1 L 812.5,466.5 z m 174.259,-0.25 0.259,-51.75 -50.509,0 -50.509,0 0,52.00925 0,52.00925 50.25,-0.25925 L 986.5,466.5 z"
       id="path4186"
       inkscape:connector-curvature="0"
       sodipodi:nodetypes="sssssssssssssssscccccccccccccscscccccccccccscscscscsccccccccccccccccccccccscsccccccccccccccccccccccccscsccccccscscccccccccccccccscsccccccccccc" />
    <path
       style="fill:#d2d1d1"
       d="m 563.20115,1093.3911 c -2.2,-0.2113 -9.85,-0.8533 -17,-1.4267 -40.76409,-3.2689 -89.30156,-13.2745 -130.5,-26.9016 -70.39828,-23.2855 -133.55758,-58.6026 -192.5,-107.64124 -16.73396,-13.9222 -56.00701,-53.19524 -69.92924,-69.9292 C 75.678632,794.22838 81.511117,773.01188 69.39075,652.30076 67.606704,634.5328 66.985965,580.23478 68.336847,560.11248 79.750677,390.09587 97.420628,289.74094 233.59962,187.40708 c 86.3243,-64.86975 186.02,-103.207463 297,-114.210537 17.44937,-1.730012 86.55063,-1.730012 104,0 122.37629,12.132955 228.9778,56.617727 323,134.787797 16.71518,13.89701 13.0871,18.06547 27.025,34.81833 81.27198,97.68564 127.25148,211.85867 135.64008,336.81172 1.3508,20.1223 0.7301,74.42032 -1.0539,92.18828 -14.7869,147.26774 -21.4047,172.11735 -130.00965,271.46839 -92.00149,84.16224 -208.62474,135.64114 -337,148.75594 -10.56987,1.0798 -80.75832,2.1556 -89,1.3641 z M 290.76145,765 c 0.24137,-48.46796 0.13069,-52.596 -1.44113,-53.75 -2.21127,-1.62347 -98.37326,-1.82722 -101.38606,-0.21482 -1.8741,1.00299 -1.93426,2.6451 -1.93426,52.8 0,39.14153 0.29482,52.05964 1.20897,52.97379 0.9206,0.9206 13.3835,1.1472 52.25,0.95 L 290.5,817.5 z M 464.8,816.8 c 1.50357,-1.50357 1.71656,-102.43439 0.22116,-104.8 -0.82265,-1.30138 -7.71108,-1.5 -52.02116,-1.5 -44.31008,0 -51.19851,0.19862 -52.02116,1.5 -1.34572,2.12882 -1.29189,101.54655 0.0563,104.06574 1.00259,1.87335 2.63377,1.93426 51.8,1.93426 38.15042,0 51.063,-0.29818 51.96482,-1.2 z M 639.76145,765 c 0.24137,-48.46796 0.13069,-52.596 -1.44113,-53.75 -2.21127,-1.62347 -98.37326,-1.82722 -101.38606,-0.21482 -1.87449,1.0032 -1.93426,2.65115 -1.93426,53.33334 0,28.76398 0.30401,52.60215 0.67557,52.97372 0.37157,0.37157 23.88407,0.55907 52.25,0.41667 L 639.5,817.5 z m 174.2299,51.01617 c 1.28009,-2.39188 0.96683,-103.39291 -0.32468,-104.68346 -0.45834,-0.45799 -23.76225,-0.83271 -51.78648,-0.83271 -44.20358,0 -51.07874,0.1987 -51.90135,1.5 -1.4954,2.36561 -1.28241,103.29643 0.22116,104.8 0.90182,0.90182 13.8144,1.2 51.96482,1.2 49.60347,0 50.7891,-0.0454 51.82653,-1.98383 z M 987.8,816.8 c 0.90242,-0.90242 1.2,-14.03663 1.2,-52.96482 0,-50.1549 -0.0602,-51.79701 -1.93426,-52.8 C 985.80847,710.36231 968.11057,710 936.5,710 c -31.61057,0 -49.30847,0.36231 -50.56574,1.03518 -1.87449,1.0032 -1.93426,2.65115 -1.93426,53.33334 0,28.76398 0.3,52.59815 0.66667,52.96481 0.36666,0.36667 23.45166,0.66667 51.3,0.66667 38.04814,0 50.9316,-0.29827 51.83333,-1.2 z m -697.3,-227.3 0,-53 -52,0 -52,0 -0.26003,52 c -0.14301,28.6 -0.0431,52.56656 0.22208,53.25901 0.38071,0.99425 11.37084,1.20455 52.26002,1 L 290.5,642.5 z m 174.89301,51.91821 c 0.33385,-0.86998 0.60699,-24.40498 0.60699,-52.3 0,-38.11416 -0.29821,-51.01642 -1.2,-51.91821 -0.90182,-0.90182 -13.8144,-1.2 -51.96482,-1.2 -49.16623,0 -50.79741,0.0609 -51.8,1.93426 -1.11573,2.08476 -1.49638,98.74288 -0.40489,102.81574 l 0.60297,2.25 51.77638,0 c 46.2908,0 51.84069,-0.16759 52.38337,-1.58179 z M 639.5,589.5 l 0,-53 -52,0 -52,0 -0.26003,52 c -0.14301,28.6 -0.0431,52.56656 0.22208,53.25901 0.38071,0.99425 11.37084,1.20455 52.26002,1 L 639.5,642.5 z m 349,0 0,-53 -52,0 -52,0 -0.26003,52 c -0.14301,28.6 -0.0431,52.56656 0.22208,53.25901 0.38071,0.99425 11.37084,1.20455 52.26002,1 L 988.5,642.5 z M 289.8,467.8 c 0.90268,-0.90268 1.2,-14.13178 1.2,-53.39301 0,-46.67071 -0.16736,-52.25724 -1.58179,-52.8 -0.86998,-0.33385 -23.95498,-0.60699 -51.3,-0.60699 -37.33638,0 -50.01706,0.29885 -50.91821,1.2 -1.73022,1.73022 -1.73022,103.86978 0,105.6 1.72958,1.72958 100.87042,1.72958 102.6,0 z m 179,0 c 1.73064,-1.73064 1.73064,-105.86936 0,-107.6 -1.73064,-1.73064 -105.86936,-1.73064 -107.6,0 -1.73064,1.73064 -1.73064,105.86936 0,107.6 1.73064,1.73064 105.86936,1.73064 107.6,0 z m 170,0 c 1.73022,-1.73022 1.73022,-103.86978 0,-105.6 -1.72958,-1.72958 -100.87042,-1.72958 -102.6,0 -1.73022,1.73022 -1.73022,103.86978 0,105.6 1.72958,1.72958 100.87042,1.72958 102.6,0 z m 174.2,0.2216 c 1.29485,-0.81816 1.53782,-7.84094 1.77652,-51.34983 0.1752,-31.93367 -0.0905,-51.36751 -0.72525,-53.03691 L 813.0495,361 l -50.98957,0 c -49.38843,0 -51.02207,0.0607 -52.02475,1.93426 C 709.36081,364.19434 709,382.46817 709,415.36283 c 0,44.57059 0.18435,50.67866 1.57143,52.06574 1.38682,1.38682 7.40759,1.56963 51.25,1.55612 29.5437,-0.009 50.28652,-0.39945 51.17857,-0.96309 z M 987.8,467.8 c 1.73022,-1.73022 1.73022,-103.86978 0,-105.6 -0.90115,-0.90115 -13.58183,-1.2 -50.91821,-1.2 -27.34502,0 -50.43002,0.27314 -51.3,0.60699 -1.41475,0.54289 -1.58179,6.18364 -1.58179,53.41667 0,41.31207 0.27215,52.91949 1.25,53.31406 0.6875,0.27741 23.7725,0.53991 51.3,0.58333 37.68413,0.0594 50.34648,-0.21753 51.25,-1.12105 z"
       id="path4184"
       inkscape:connector-curvature="0"
       sodipodi:nodetypes="ssssssssssssssssssssssscscssscsccsssssscsssssssssssssscssccccscsccsssssscssccccscsccccccscsccsscssssssssssssssssccssssssssssssss" />
    <path
       style="fill:#b3b3b3"
       d="M 568.85248,1128.9947 C 473.18211,1121.2833 383.94261,1092.0919 304.72226,1042.5941 229.47195,995.57689 187.27364,972.88053 140.25645,897.63022 93.23913,822.37971 65.649583,741.49219 55.111246,648 c -2.51239,-22.28899 -2.51239,-92.71101 0,-115 10.538337,-93.49219 38.127884,-174.37971 85.145204,-249.63022 36.14344,-57.84703 60.09489,-83.03385 113.46286,-124.40622 78.19141,-60.616185 138.80247,-76.831891 235.47993,-91.672016 35.21925,-5.406204 44.59066,-6.038484 89.5,-6.038484 44.90934,0 54.28075,0.63228 89.5,6.038484 96.67746,14.840125 198.24252,68.109456 276.43393,128.725646 36.92955,28.62884 74.02733,65.72658 102.65613,102.65613 60.6162,78.19141 59.2802,107.59941 74.1203,204.27687 5.3881,35.10135 6.0271,44.5896 6.0271,89.5 0,44.9104 -0.639,54.39865 -6.0271,89.5 -14.8401,96.67746 -60.3087,163.13909 -120.9249,241.3305 -28.51279,36.77992 -65.84898,74.14262 -102.35468,102.42751 -87.08809,67.4765 -114.93258,89.2333 -227.77754,101.9094 -16.91485,1.9001 -83.75994,2.807 -101.5,1.3771 z M 625,1071.9173 C 807.31306,1057.5468 966.33401,940.5674 1034.7446,770.5 c 14.8948,-37.02817 25.732,-78.37886 30.6635,-117 5.196,-40.69271 5.196,-85.30729 0,-126 C 1047.924,390.57187 969.99022,265.61254 854,188.52746 815.91509,163.21689 778.46346,145.01439 735.94178,131.14799 687.2762,115.27805 639.3185,107.77849 586.5,107.77849 c -52.8185,0 -100.7762,7.49956 -149.44178,23.3695 C 260.38183,188.7625 130.96486,344.45271 107.5919,527.5 c -5.19597,40.69271 -5.19597,85.30729 0,126 17.34033,135.80222 94.24962,260.07433 208.79502,337.37662 C 407.24225,1052.1914 515.29185,1080.5648 625,1071.9173 z M 710.46199,640.7591 C 710.19676,640.06659 710.09682,616.55 710.23988,588.5 l 0.26012,-51 51.22867,-0.25907 51.22867,-0.25907 0.54835,2.25907 c 0.30159,1.24249 0.42369,24.75907 0.27133,52.25907 l -0.27702,50 -51.27789,0.2591 c -40.48904,0.20458 -51.37936,-0.006 -51.76012,-1 z"
       id="path4182"
       inkscape:connector-curvature="0"
       sodipodi:nodetypes="ssssssssssssssssssssssssssssssscscccsscsc" />
    <path
       style="fill:#a7a6a6"
       d="m 553,1169.4027 c -2.475,-0.2066 -10.35,-0.8633 -17.5,-1.4593 C 418.74508,1158.2101 306.94598,1111.8408 213.46379,1034.377 196.77055,1020.5441 156.45586,980.22945 142.62304,963.53621 64.904387,869.74652 20.790694,763.40901 8.8201801,641 7.9936369,632.54787 7.5,613.6651 7.5,590.5 7.5,567.3349 7.9936369,548.45213 8.8201801,540 20.805508,417.4395 65.157625,310.68735 143.03937,216.94469 156.35966,200.91167 196.91167,160.35966 212.94469,147.03937 306.70388,69.143891 413.41789,24.807622 536,12.82018 c 18.09415,-1.769447 82.90585,-1.769447 101,0 122.58308,11.987536 229.17872,56.272303 323.05531,134.21214 6.84458,5.68262 23.25745,21.16256 36.47305,34.39986 31.83184,31.88411 50.30634,54.38041 73.96594,90.06782 41.6694,62.85277 71.4505,136.06734 85.4207,210 7.4995,39.68882 9.585,63.40507 9.585,109 0,55.52273 -4.48,92.85598 -17.1601,143 -21.1014,83.44682 -60.094,159.70753 -117.0873,228.99653 -13.7082,16.66563 -54.93472,57.99047 -71.71639,71.88747 -92.40104,76.5177 -196.38278,120.2751 -316.53621,133.2042 -13.63273,1.4669 -78.49651,2.7747 -90,1.8145 z m 69.05011,-95.442 C 707.19368,1067.3817 785.19825,1040.5508 855.5,993.66212 899.97939,963.99598 941.32442,924.89687 974.10491,881.5 1020.4087,820.20015 1051.7374,747.24643 1064.5005,671 c 5.0801,-30.34827 5.9499,-42.11663 5.9499,-80.5 0,-38.38337 -0.8698,-50.15173 -5.9499,-80.5 C 1047.8159,410.32661 1001.0737,319.91385 929.04141,247.98338 845.19391,164.2544 738.49535,115.53478 620.11285,106.92355 599.6389,105.43426 553.63148,106.2511 535,108.43469 c -89.80465,10.52502 -166.879,40.7219 -237.54624,93.06798 -36.48,27.02222 -72.92887,63.47109 -99.95109,99.95109 -46.23022,62.41083 -76.37503,132.93734 -88.9242,208.04624 -5.16865,30.93523 -6.02891,42.49303 -6.02891,81 0,38.50144 0.8589,50.04452 6.02701,81 16.52629,98.98754 63.51055,189.74674 135.38202,261.51662 84.31527,84.19608 190.83953,132.59058 311.04141,141.30758 11.20151,0.8124 54.89862,0.5755 67.05011,-0.3635 z"
       id="path4180"
       inkscape:connector-curvature="0" />
  </g>
</svg>
