<?xml version="1.0" encoding="UTF-8" standalone="no"?>
<!-- Created with Inkscape (http://www.inkscape.org/) -->

<svg
   xmlns:dc="http://purl.org/dc/elements/1.1/"
   xmlns:cc="http://creativecommons.org/ns#"
   xmlns:rdf="http://www.w3.org/1999/02/22-rdf-syntax-ns#"
   xmlns:svg="http://www.w3.org/2000/svg"
   xmlns="http://www.w3.org/2000/svg"
   xmlns:sodipodi="http://sodipodi.sourceforge.net/DTD/sodipodi-0.dtd"
   xmlns:inkscape="http://www.inkscape.org/namespaces/inkscape"
   id="svg3048"
   version="1.1"
   inkscape:version="0.48.4 r9939"
   viewBox="0 0 64 64"
   sodipodi:docname="symbole_2016_formation.svg">
  <metadata
     id="metadata3054">
    <rdf:RDF>
      <cc:Work
         rdf:about="">
        <dc:format>image/svg+xml</dc:format>
        <dc:type
           rdf:resource="http://purl.org/dc/dcmitype/StillImage" />
        <dc:title></dc:title>
      </cc:Work>
    </rdf:RDF>
  </metadata>
  <defs
     id="defs3052" />
  <sodipodi:namedview
     pagecolor="#ffffff"
     bordercolor="#666666"
     borderopacity="1"
     objecttolerance="10"
     gridtolerance="10"
     guidetolerance="10"
     inkscape:pageopacity="0"
     inkscape:pageshadow="2"
     inkscape:window-width="1855"
     inkscape:window-height="1056"
     id="namedview3050"
     showgrid="false"
     inkscape:zoom="7.4431812"
     inkscape:cx="96.130658"
     inkscape:cy="37.653262"
     inkscape:window-x="65"
     inkscape:window-y="24"
     inkscape:window-maximized="1"
     inkscape:current-layer="svg3048" />
  <path
     sodipodi:type="arc"
     style="fill:#ffffff;fill-opacity:1;fill-rule:evenodd;stroke:none"
     id="path3066"
     sodipodi:cx="620.547"
     sodipodi:cy="592.16986"
     sodipodi:rx="485.40564"
     sodipodi:ry="497.81656"
     d="m 1105.9526,592.16986 a 485.40564,497.81656 0 1 1 -970.81124,0 485.40564,497.81656 0 1 1 970.81124,0 z"
     transform="matrix(0.05427539,0,0,0.05427539,0.06397514,0.49732252)" />
  <g
     id="g3058"
     transform="matrix(0.05427539,0,0,0.05427539,0.28851126,0.19793929)">
    <path
       style="fill:#e5e5e5"
       d="m 564.17624,1127.5478 c -2.2,-0.2093 -9.85,-0.8618 -17,-1.4501 -29.30746,-2.4111 -64.38752,-8.4781 -95,-16.4301 C 228.0455,1051.4473 98.468168,905.78744 63.248399,677.07471 c -5.252723,-34.11052 -6.023989,-45.56942 -6.023989,-89.5 0,-43.90772 0.766192,-55.30518 6.016616,-89.5 C 101.59342,248.29422 252.93297,90.132005 502.85057,51.646871 c 34.11052,-5.252723 45.56942,-6.023988 89.5,-6.023988 43.93058,0 55.38948,0.771265 89.5,6.023988 249.94937,38.490028 395.40173,198.565779 433.75893,448.378029 5.2505,34.19482 6.0166,45.59228 6.0166,89.5 0,43.90772 -0.7661,55.30518 -6.0166,89.5 -38.358,249.81707 -176.98865,404.046 -426.93326,442.5269 -31.05265,4.7808 -44.42048,5.7531 -83.5,6.0734 -20.35,0.1668 -38.8,0.132 -41,-0.077 z M 796.5,626.5 l 0,-301 -150,-0.3127 c -82.5,-0.17198 -188.8125,-0.005 -236.25,0.3714 l -86.25,0.6841 0,20.3786 0,20.3786 19.56574,0 c 11.57482,0 20.35572,0.42278 21.5,1.03518 C 366.94712,369.04207 367,370.8181 367,433 c 0,62.1819 -0.0529,63.95793 -1.93426,64.96482 -1.14428,0.6124 -9.92518,1.03518 -21.5,1.03518 L 324,499 l 0,20.5 0,20.5 20.3,0 c 14.45556,0 20.64548,0.34548 21.5,1.2 0.90782,0.90782 1.2,16.47071 1.2,63.91821 0,34.49502 -0.27314,63.43002 -0.60699,64.3 C 365.86629,670.79082 363.02043,671 344.87272,671 l -20.9133,0 0.27029,20.75 0.27029,20.75 21,0.5 21,0.5 0.25745,63.88856 c 0.18681,46.35937 -0.0526,64.2621 -0.87244,65.25 C 364.99941,843.70564 360.34925,844 344.37756,844 L 324,844 l 0,42.00208 0,42.00209 236.25,-0.25209 L 796.5,927.5 z M 346,781.1614 l 0,-36.8386 -31.11439,-0.64972 c -17.11291,-0.35735 -31.51291,-0.40342 -32,-0.10239 C 282.39732,743.87248 282,760.69124 282,781.05902 L 282,818 l 32,0 32,0 z M 345.76217,608.25 346.02434,571 314.01217,571 282,571 l 0,36.83333 c 0,20.25834 0.3063,37.13963 0.68066,37.514 0.37436,0.37436 14.66186,0.56186 31.75,0.41666 L 345.5,645.5 z m 0,-172.5 L 345.5,398.5 313.75,398.23595 282,397.97191 l 0,37.51404 0,37.51405 32.01217,0 32.01217,0 z"
       id="path3064"
       inkscape:connector-curvature="0"
       sodipodi:nodetypes="ccssssssssssssccccsscccssssscccssssscccccscsccccccccscsccccccccsssccccccccccc" />
    <path
       style="fill:#d2d1d1"
       d="M 553.42529,1107.9895 C 497.46098,1103.6498 452.94062,1094.9606 405.11838,1079.044 283.00886,1038.4024 218.07395,1024.6175 145.93783,916.54835 99.245174,846.59677 68.181092,766.71633 55.465166,683.90038 c -5.250424,-34.19482 -6.016615,-45.59228 -6.016615,-89.5 0,-43.90772 0.766191,-55.30518 6.016615,-89.5 24.619638,-160.34214 71.500644,-261.84316 207.559734,-352.7254 79.32363,-52.98514 167.26198,-84.533094 264.5,-94.889591 32.9834,-3.512952 89.82602,-3.006554 125.5,1.118052 169.24242,19.56771 281.7218,83.842329 376.9626,226.525209 46.6926,69.95158 77.7567,149.83202 90.4726,232.64797 5.2505,34.19482 6.0166,45.59228 6.0166,89.5 0,43.90772 -0.7661,55.30518 -6.0166,89.5 -24.6346,160.43965 -72.6634,224.08501 -208.88684,314.98038 -78.93776,52.6714 -166.78858,84.1414 -264.14797,94.6232 -14.24657,1.5338 -80.98657,2.8184 -94,1.8093 z M 798.05029,908 c 0.30266,-11.825 0.64016,-21.6125 0.75,-21.75 0.10984,-0.1375 13.65157,-0.25 30.09272,-0.25 26.33603,0 29.96524,-0.18822 30.5,-1.58179 0.91582,-2.38658 0.69851,-599.72583 -0.2187,-601.17041 -0.63371,-0.99808 -46.34264,-1.20102 -225.23469,-1 L 409.5,282.5 l -0.27029,20.75 -0.27029,20.75 -42.22971,0.0153 c -23.22634,0.008 -42.80139,0.37816 -43.50012,0.82163 -0.97675,0.61994 -1.2079,5.75943 -1,22.23469 L 322.5,368.5 l 21,0.5 21,0.5 0,63.5 0,63.5 -21,0.5 -21,0.5 -0.27041,21.42837 c -0.2079,16.47526 0.0233,21.61475 1,22.23469 0.69873,0.44347 10.38291,0.81321 21.52041,0.82163 L 365,542 l 0,63.5 0,63.5 -20.3,0 c -14.45556,0 -20.64548,0.34548 -21.5,1.2 -0.85628,0.85628 -1.2,7.14774 -1.2,21.96482 0,19.50611 0.11725,20.82756 1.93426,21.8 1.14435,0.61243 9.9275,1.03518 21.50746,1.03518 l 19.57319,0 -0.25745,63.25 -0.25746,63.25 -21,0.5 -21,0.5 -0.26105,42.5 c -0.14358,23.375 -0.0448,43.06343 0.21941,43.75208 0.3833,0.99888 48.46329,1.2011 237.76105,1 L 797.5,929.5 z M 347.5,781 l 0,-38.5 -33.5,0 -33.5,0 -0.26242,37.49645 c -0.14433,20.62304 -0.0436,38.06663 0.2238,38.76351 0.38183,0.99502 7.63086,1.21049 33.76242,1.00355 L 347.5,819.5 z m 0,-173 0,-38.5 -33.5,0 -33.5,0 -0.26242,37.49645 c -0.14433,20.62304 -0.0436,38.06663 0.2238,38.76351 0.38183,0.99502 7.63086,1.21049 33.76242,1.00355 L 347.5,646.5 z m -0.61014,-134.36729 c 0.81231,-0.97878 1.06022,-11.98947 0.87244,-38.75 L 347.5,397.5 316,396.7359 c -17.325,-0.42026 -32.5125,-0.52419 -33.75,-0.23095 l -2.25,0.53315 0,38.39762 c 0,29.78242 0.28046,38.51078 1.25,38.902 0.6875,0.27741 15.4824,0.53991 32.87756,0.58333 25.60188,0.0639 31.84374,-0.18155 32.7623,-1.28834 z"
       id="path3062"
       inkscape:connector-curvature="0"
       sodipodi:nodetypes="sssssssssssssssssssssscccccscccccccscscccssssscccccscscsccccscsccccccscsccsscsscssss" />
    <path
       style="fill:#a7a6a6"
       d="M 549,1169.9215 C 489.98563,1166.2143 425.83694,1151.8121 372,1130.1827 216.33482,1067.6432 96.290236,943.29616 39.634658,785.90532 4.6356461,688.67705 -3.3454989,578.86195 17.147689,476.5 47.725583,323.7657 138.17168,190.14507 268.9673,104.47405 342.51382,56.301139 425.60232,25.690827 513,14.570909 c 26.33348,-3.350502 38.45423,-4.01469 73.5,-4.027624 35.15498,-0.01297 46.72623,0.621102 73.5,4.027624 156.37735,19.896447 297.28705,102.213711 392.0914,229.053711 110.3868,147.68794 143.611,340.1266 89.4104,517.87538 -32.6811,107.17638 -98.8591,205.6761 -186.51033,277.6031 -95.05022,77.9987 -208.7804,122.7675 -332.49147,130.8821 -17.16616,1.1259 -55.08546,1.0931 -73.5,-0.064 z m 69.17045,-96.9785 c 104.13396,-7.1805 197.83322,-44.8532 279.51652,-112.38234 13.92303,-11.51043 47.36326,-44.95066 58.87369,-58.87369 36.22427,-43.8169 63.13644,-89.70724 82.21534,-140.19268 41.5508,-109.94914 41.5508,-232.03944 0,-341.98858 C 1003.353,325.77157 938.50705,244.27425 855,188.53916 757.29696,123.32925 641.35109,96.148074 524.5,111.0601 307.44032,138.7603 134.69118,311.43349 107.03369,528.34289 c -22.710196,178.10918 53.3143,351.8396 199.78004,456.53532 89.17576,63.74409 201.85748,95.61519 311.35672,88.06479 z"
       id="path3060"
       inkscape:connector-curvature="0" />
  </g>
</svg>
