<?xml version="1.0" encoding="UTF-8" standalone="no"?>
<!-- Created with Inkscape (http://www.inkscape.org/) -->

<svg
   xmlns:dc="http://purl.org/dc/elements/1.1/"
   xmlns:cc="http://creativecommons.org/ns#"
   xmlns:rdf="http://www.w3.org/1999/02/22-rdf-syntax-ns#"
   xmlns:svg="http://www.w3.org/2000/svg"
   xmlns="http://www.w3.org/2000/svg"
   xmlns:sodipodi="http://sodipodi.sourceforge.net/DTD/sodipodi-0.dtd"
   xmlns:inkscape="http://www.inkscape.org/namespaces/inkscape"
   id="svg3607"
   version="1.1"
   inkscape:version="0.48.4 r9939"
   width="64"
   height="64"
   sodipodi:docname="symbole_2016_spectacle.svg">
  <metadata
     id="metadata3613">
    <rdf:RDF>
      <cc:Work
         rdf:about="">
        <dc:format>image/svg+xml</dc:format>
        <dc:type
           rdf:resource="http://purl.org/dc/dcmitype/StillImage" />
        <dc:title></dc:title>
      </cc:Work>
    </rdf:RDF>
  </metadata>
  <defs
     id="defs3611" />
  <sodipodi:namedview
     pagecolor="#ffffff"
     bordercolor="#666666"
     borderopacity="1"
     objecttolerance="10"
     gridtolerance="10"
     guidetolerance="10"
     inkscape:pageopacity="0"
     inkscape:pageshadow="2"
     inkscape:window-width="1855"
     inkscape:window-height="1056"
     id="namedview3609"
     showgrid="false"
     inkscape:zoom="7.4431812"
     inkscape:cx="104.40417"
     inkscape:cy="27.248376"
     inkscape:window-x="65"
     inkscape:window-y="24"
     inkscape:window-maximized="1"
     inkscape:current-layer="svg3607" />
  <g
     id="g3617"
     transform="matrix(0.05415098,0,0,0.05415098,0.25377874,-0.17073513)">
    <path
       style="fill:#f5f5f5"
       d="M 564.05966,1120.6017 C 459.57938,1113.7431 363.32097,1081.619 277.91094,1025.106 138.42824,932.81483 80.997114,831.70131 57.357184,667.60503 c -4.404304,-30.57243 -5.514231,-47.52034 -5.501197,-84 0.01302,-36.45025 1.148199,-53.78372 5.501197,-84 C 87.534799,290.12749 190.09472,166.28575 389.30076,91.020222 c 48.04014,-18.15089 97.17677,-29.388191 152.5,-34.875994 24.59155,-2.439365 80.64268,-2.44604 105,-0.0125 55.42024,5.537027 104.58435,16.784648 152.5,34.888499 179.79934,67.933143 262.52084,184.515923 309.08294,370.390713 12.2948,49.08071 16.878,87.46056 16.8973,141.5 0.013,36.47966 -1.0969,53.42757 -5.5012,84 -31.3607,217.68953 -128.48151,336.00076 -337.85164,405.20226 -41.55584,13.7351 -83.99318,22.5843 -129.51722,27.0072 -19.19851,1.8652 -69.6241,2.7107 -88.35128,1.4813 z"
       id="path3623"
       inkscape:connector-curvature="0"
       sodipodi:nodetypes="sssssssssssssss" />
    <path
       style="fill:#d2d1d1"
       d="m 587.83785,1122.2874 c -79.61454,-3.8034 -157.21027,-24.1095 -229.5,-60.058 -58.17057,-28.9273 -107.47284,-64.32726 -153.00935,-109.86376 -45.52763,-45.52768 -64.35816,-49.29016 -93.32245,-107.50262 -33.62125,-67.572 -53.183672,-138.6055 -59.210387,-215 -1.5725,-19.93298 -1.5725,-67.06702 0,-87 4.231476,-53.63809 15.596798,-106.53972 33.30001,-155 C 132.97128,259.54706 151.88821,203.66363 270.09771,134.28646 288.85528,123.27764 326.25372,104.93074 346.38694,96.860551 484.9611,41.314536 640.73703,41.36587 779.97455,97.003434 801.84612,105.74304 839.88536,124.49662 859.20617,136.06512 976.59099,206.35027 1036.617,264.79966 1083.0851,392 c 46.3429,126.85787 46.3429,270.14213 0,397 -69.6961,190.78409 -121.79917,260.1954 -319.5019,300.2295 -47.93474,9.7066 -126.44801,35.4129 -175.74535,33.0579 z M 376.02623,951.96096 c 17.1675,-2.10506 35.82797,-8.53131 51.71351,-17.80896 24.17668,-14.11994 50.98761,-40.01561 69.07488,-66.71684 l 4.10828,-6.06483 1.11035,-182.93517 C 502.64393,577.82082 503.5323,495.10148 504.0074,494.61439 504.90921,493.68983 766.89921,441 770.59462,441 l 2.113,0 0.73878,134.53598 c 0.53922,98.19584 0.43855,134.89772 -0.37269,135.87521 -0.61131,0.73658 -2.79047,1.60887 -4.84259,1.93843 -6.07411,0.97548 -32.56354,8.41789 -49.23112,13.83187 -33.16954,10.77416 -62.34978,23.86944 -81.4546,36.55455 -11.48805,7.62777 -24.556,20.25999 -29.25813,28.28255 -13.90205,23.71902 -3.75259,48.1501 30.71273,73.92954 12.46748,9.32545 32.50317,19.34349 45.5,22.75044 8.49738,2.22748 12.10367,2.62137 24,2.62137 16.79814,0 27.83309,-2.49958 42.68343,-9.66846 30.81762,-14.87695 62.94709,-48.46783 84.24438,-88.07624 l 4.34202,-8.07524 0.66919,-270.65755 c 0.46878,-189.6053 0.35296,-270.85298 -0.38677,-271.31016 -1.15667,-0.71486 -423.04158,95.14062 -424.37358,96.42092 -0.45173,0.4342 -1.27114,101.30985 -1.8209,224.16812 -0.54976,122.85827 -1.32902,223.71753 -1.73169,224.13169 -0.40266,0.41415 -7.45825,1.86156 -15.6791,3.21645 -74.17943,12.22564 -127.66985,32.78174 -145.23155,55.81175 -5.1201,6.71438 -6.7081,9.97145 -8.12553,16.66588 -3.73907,17.65942 9.99407,39.25442 38.63134,60.74675 27.7797,20.84872 63.17841,31.08381 94.30499,27.26711 z"
       id="path3621"
       inkscape:connector-curvature="0"
       sodipodi:nodetypes="sssssssssssssssssscssscssssssssssscssssssssss" />
    <path
       style="fill:#a7a6a6"
       d="M 549,1169.9215 C 489.98563,1166.2143 425.83694,1151.8121 372,1130.1827 216.33482,1067.6432 96.290236,943.29616 39.634658,785.90532 4.6356461,688.67705 -3.3454989,578.86195 17.147689,476.5 47.725583,323.7657 138.17168,190.14507 268.9673,104.47405 342.51382,56.301139 425.60232,25.690827 513,14.570909 c 26.33348,-3.350502 38.45423,-4.01469 73.5,-4.027624 35.15498,-0.01297 46.72623,0.621102 73.5,4.027624 156.37735,19.896447 297.28705,102.213711 392.0914,229.053711 110.3868,147.68794 143.611,340.1266 89.4104,517.87538 -32.6811,107.17638 -98.8591,205.6761 -186.51033,277.6031 -95.05022,77.9987 -208.7804,122.7675 -332.49147,130.8821 -17.16616,1.1259 -55.08546,1.0931 -73.5,-0.064 z m 69.17045,-96.9785 c 104.13396,-7.1805 197.83322,-44.8532 279.51652,-112.38234 13.92303,-11.51043 47.36326,-44.95066 58.87369,-58.87369 36.22427,-43.8169 63.13644,-89.70724 82.21534,-140.19268 41.5508,-109.94914 41.5508,-232.03944 0,-341.98858 C 1003.353,325.77157 938.50705,244.27425 855,188.53916 757.29696,123.32925 641.35109,96.148074 524.5,111.0601 307.44032,138.7603 134.69118,311.43349 107.03369,528.34289 c -22.710196,178.10918 53.3143,351.8396 199.78004,456.53532 89.17576,63.74409 201.85748,95.61519 311.35672,88.06479 z"
       id="path3619"
       inkscape:connector-curvature="0" />
  </g>
</svg>
