<?xml version="1.0" encoding="UTF-8" standalone="no"?>
<!-- Created with Inkscape (http://www.inkscape.org/) -->

<svg
   xmlns:dc="http://purl.org/dc/elements/1.1/"
   xmlns:cc="http://creativecommons.org/ns#"
   xmlns:rdf="http://www.w3.org/1999/02/22-rdf-syntax-ns#"
   xmlns:svg="http://www.w3.org/2000/svg"
   xmlns="http://www.w3.org/2000/svg"
   xmlns:sodipodi="http://sodipodi.sourceforge.net/DTD/sodipodi-0.dtd"
   xmlns:inkscape="http://www.inkscape.org/namespaces/inkscape"
   id="svg3695"
   version="1.1"
   inkscape:version="0.48.4 r9939"
   width="1181"
   height="1181"
   sodipodi:docname="symbole_2016_sport.png">
  <metadata
     id="metadata3701">
    <rdf:RDF>
      <cc:Work
         rdf:about="">
        <dc:format>image/svg+xml</dc:format>
        <dc:type
           rdf:resource="http://purl.org/dc/dcmitype/StillImage" />
        <dc:title></dc:title>
      </cc:Work>
    </rdf:RDF>
  </metadata>
  <defs
     id="defs3699" />
  <sodipodi:namedview
     pagecolor="#ffffff"
     bordercolor="#666666"
     borderopacity="1"
     objecttolerance="10"
     gridtolerance="10"
     guidetolerance="10"
     inkscape:pageopacity="0"
     inkscape:pageshadow="2"
     inkscape:window-width="1855"
     inkscape:window-height="1056"
     id="namedview3697"
     showgrid="false"
     inkscape:zoom="0.51277029"
     inkscape:cx="244.10584"
     inkscape:cy="699.63675"
     inkscape:window-x="65"
     inkscape:window-y="24"
     inkscape:window-maximized="1"
     inkscape:current-layer="svg3695" />
  <path
     sodipodi:type="arc"
     style="fill:#ffffff;fill-opacity:1;fill-rule:evenodd;stroke:none"
     id="path3717"
     sodipodi:cx="572.38104"
     sodipodi:cy="588.14197"
     sodipodi:rx="509.97495"
     sodipodi:ry="518.75079"
     d="m 1082.356,588.14197 a 509.97495,518.75079 0 1 1 -1019.949903,0 509.97495,518.75079 0 1 1 1019.949903,0 z" />
  <g
     id="g3705"
     transform="translate(-6.8949655,-1.378993)">
    <path
       style="fill:#e5e5e5"
       d="M 545.5,1111.4471 C 374.9855,1098.8116 221.16608,1014.6205 119.22742,878.13234 52.095622,788.24792 57.960819,731.56805 49.898137,618.11146 47.605455,585.84925 48.788012,542.80814 52.915245,508.29885 74.181955,330.48023 142.43613,235.88972 297.25363,142.92013 407.44458,76.749262 537.39478,49.245301 666.75095,64.716009 896.59419,92.204745 1031.1696,203.08647 1096.8893,425.93521 c 22.0982,74.9324 28.7519,155.99268 19.295,235.06479 -21.2688,177.8367 -75.8537,276.30007 -230.68698,369.2791 -78.50789,47.1449 -165.7844,74.4165 -259.99732,81.2425 -16.13022,1.1687 -63.82259,1.1243 -80,-0.074 z M 979.49863,775.75 C 979.07765,744.8125 978.45574,702.625 978.11661,682 L 977.5,644.5 847,644 l -130.5,-0.5 -0.50922,-132 c -0.28008,-72.6 -0.61758,-132.11417 -0.75,-132.25372 -0.13243,-0.13954 -59.07828,-0.13954 -130.99078,0 L 453.5,379.5 l -0.5,94 -0.5,94 -129.95376,0.25376 c -77.82119,0.15196 -130.32449,0.62449 -130.8779,1.1779 -0.93042,0.93042 -9.8554,260.91594 -9.00506,262.31834 0.25011,0.4125 179.81261,0.75 399.02776,0.75 l 398.57301,0 z m -221.9272,19.67857 C 756.18096,794.0381 756,787.52433 756,738.86283 c 0,-35.99663 0.3576,-55.6625 1.03518,-56.92857 0.96545,-1.80396 2.26557,-1.93426 19.3,-1.93426 12.87264,0 18.61909,0.35427 19.46482,1.2 0.9049,0.9049 1.2,15.03663 1.2,57.46482 0,54.60392 -0.0571,56.29537 -1.93426,57.3 -1.11567,0.59709 -9.12631,1.03518 -18.92857,1.03518 -14.11604,0 -17.26046,-0.26615 -18.56574,-1.57143 z M 833.75,795.9199 c -1.63385,-0.95163 -1.75,-4.75283 -1.75,-57.26959 0,-42.41691 0.29511,-56.54542 1.2,-57.45031 0.84573,-0.84573 6.59218,-1.2 19.46482,-1.2 17.03443,0 18.33455,0.1303 19.3,1.93426 0.67758,1.26607 1.03518,20.93194 1.03518,56.92857 0,48.6615 -0.18096,55.17527 -1.57143,56.56574 -1.30917,1.30918 -4.43834,1.56636 -18.75,1.54102 -9.79803,-0.0173 -17.93043,-0.46833 -18.92857,-1.04969 z m 75.99191,0.38922 c -1.65562,-0.43214 -1.74305,-3.82062 -1.5,-58.134 L 908.5,680.5 l 19.5,0 19.5,0 0.26095,57 c 0.24125,52.6986 0.1325,57.09433 -1.44113,58.25 -1.21623,0.8932 -6.42869,1.21689 -18.26095,1.134 -9.10738,-0.0638 -17.35001,-0.3225 -18.31696,-0.57488 z M 265.6876,720.35427 C 265.30942,719.97609 265,694.08053 265,662.80858 l 0,-56.85808 2.5651,-0.97525 c 3.33936,-1.26962 31.53707,-1.2671 34.878,0.003 l 2.5733,0.97836 -0.2582,57.27164 L 304.5,720.5 l -19.0624,0.27094 c -10.48432,0.14901 -19.37182,-0.0385 -19.75,-0.41667 z M 341.2,719.8 c -1.5035,-1.5035 -1.71887,-111.42908 -0.22296,-113.8 0.76637,-1.21465 4.14371,-1.55954 17.75389,-1.813 10.00616,-0.18634 17.91252,0.10714 19.53827,0.72525 l 2.7308,1.03825 0,56.32475 c 0,42.47481 -0.29507,56.61982 -1.2,57.52475 -0.84494,0.84494 -6.55556,1.2 -19.3,1.2 -12.74444,0 -18.45506,-0.35506 -19.3,-1.2 z m 227,-189 c -1.73196,-1.73196 -1.73196,-112.86804 0,-114.6 0.84494,-0.84494 6.55556,-1.2 19.3,-1.2 12.74444,0 18.45506,0.35506 19.3,1.2 1.73196,1.73196 1.73196,112.86804 0,114.6 -0.84494,0.84494 -6.55556,1.2 -19.3,1.2 -12.74444,0 -18.45506,-0.35506 -19.3,-1.2 z"
       id="path3713"
       inkscape:connector-curvature="0"
       sodipodi:nodetypes="csssssssssccsscccscscccsscscssssssssssssssssssssscccsssssscsccccsssssscsssssssssss" />
    <path
       style="fill:#d2d1d1"
       d="M 562.20115,1120.6657 C 506.23684,1116.326 461.71648,1107.6368 413.89424,1091.7202 291.78472,1051.0786 220.99923,993.41443 148.86311,885.3453 102.17046,815.39372 71.106379,735.51328 58.390453,652.69733 c -5.250424,-34.19482 -6.016616,-45.59228 -6.016616,-89.5 0,-43.90772 0.766192,-55.30518 6.016616,-89.5 24.619638,-160.34214 71.500647,-233.5654 207.559737,-324.44764 79.32363,-52.985136 167.26198,-84.53309 264.5,-94.889587 32.9834,-3.512952 89.82602,-3.006554 125.5,1.118052 169.24242,19.56771 280.25915,90.180455 375.49991,232.863335 46.6926,69.95158 77.7567,149.83202 90.4726,232.64797 5.2505,34.19482 6.0166,45.59228 6.0166,89.5 0,43.90772 -0.7661,55.30518 -6.0166,89.5 -24.6346,160.43965 -77.0513,284.05338 -213.27473,374.94874 -78.93776,52.6714 -155.08743,33.4364 -252.44682,43.9182 -14.24657,1.5338 -80.98657,2.8184 -94,1.8093 z M 981.5,799.5 c 0,-18.7 -0.37831,-61.32764 -0.84068,-94.72809 l -0.84068,-60.72809 19.34068,-0.27191 L 1018.5,643.5 l 0,-18.5 0,-18.5 -150.25,-0.25325 -150.25,-0.25324 0,-113.47562 0,-113.47561 19.75,-0.27114 19.75,-0.27114 0,-18.5 0,-18.5 -169.43919,-0.2529 c -134.89138,-0.20133 -169.60139,0.003 -170.23469,1 -0.92498,1.45684 -1.1204,32.82243 -0.21913,35.17111 0.51934,1.35337 2.97421,1.58179 17,1.58179 L 451,379 l 0,75.49675 0,75.49676 -150.25,0.25324 -150.25,0.25325 0,18.5 0,18.5 19,0.5 19,0.5 -0.30909,11 c -0.17,6.05 -2.06727,65.19725 -4.21615,131.43832 -2.82997,87.23622 -3.60667,120.80027 -2.81744,121.75124 0.89686,1.08065 71.78777,1.26847 400.71615,1.06168 L 981.5,833.5 z M 758.66667,794.33333 C 758.3,793.96667 758,768.54167 758,737.83333 L 758,682 l 18.39301,0 c 15.84953,0 18.47695,0.21874 19,1.58179 C 795.72686,684.45177 796,709.16497 796,738.5 c 0,29.33503 -0.27314,54.04823 -0.60699,54.91821 C 794.8711,794.77828 792.30129,795 777.05968,795 c -9.74949,0 -18.02635,-0.3 -18.39301,-0.66667 z m 74.9488,-0.89301 c -0.79862,-2.08118 -0.80679,-107.77818 -0.008,-109.85853 C 834.13005,682.2187 836.75819,682 852.61531,682 l 18.40134,0 -0.25832,56.25 -0.25833,56.25 -18.13453,0.27211 c -15.88008,0.23829 -18.21104,0.0727 -18.75,-1.33179 z m 75.85206,0.33233 C 909.19964,793.07269 909.09735,767.75 909.24023,737.5 l 0.25977,-55 18.5,0 18.5,0 0,56 0,56 -18.27269,0.27265 c -14.07136,0.20995 -18.38469,-0.02 -18.75978,-1 z m -643,-76 C 266.19964,717.07269 266.09735,691.75 266.24023,661.5 l 0.25977,-55 18.5,0 18.5,0 0,56 0,56 -18.27269,0.27265 c -14.07136,0.20995 -18.38469,-0.02 -18.75978,-1 z M 342.24167,662.75 342.5,606.5 l 17.92628,-0.27379 c 13.67228,-0.20882 18.11812,0.0285 18.73469,1 0.92823,1.4626 1.15215,107.79424 0.23204,110.192 C 378.86995,718.7813 376.24181,719 360.38469,719 l -18.40134,0 z M 569,473.5 l 0,-56.5 18.39301,0 c 15.84953,0 18.47695,0.21874 19,1.58179 C 606.72686,419.45177 607,444.16497 607,473.5 c 0,29.33503 -0.27314,54.04823 -0.60699,54.91821 -0.52305,1.36305 -3.15047,1.58179 -19,1.58179 L 569,530 z"
       id="path3711"
       inkscape:connector-curvature="0"
       sodipodi:nodetypes="sssssssssssssssssscccccccccccccscsscccccccccsssscscscssssscscscccsscscccccsccscccccscccssssccccssssscc" />
    <path
       style="fill:#bdbdbd"
       d="m 571.15295,1121.3039 c -96.37533,-3.9473 -170.7449,-25.9961 -253.50459,-75.6844 -26.85083,-16.1211 -50.03065,-32.6851 -76.5,-54.66609 -16.18028,-13.4365 -53.63795,-50.73788 -67.67419,-67.3917 C 78.274413,810.60842 44.245442,735.57404 50.179008,589.90898 55.524036,458.69215 74.662424,353.68677 159.80925,251.35382 c 13.93506,-16.74773 52.21784,-55.02636 68.92817,-68.9207 84.78761,-70.49938 148.64589,-106.690973 254.59365,-122.927947 121.10772,-18.560306 239.49,-12.574958 348.79453,43.832847 53.77826,27.75287 98.99138,61.00079 143.55572,105.56512 23.43988,23.43987 36.85058,38.77758 54.69638,62.55572 99.2609,132.25769 117.0186,255.59569 84.174,419.16248 -16.7996,83.6624 -38.9416,149.05324 -90.7712,217.6536 -17.58,23.26846 -30.56457,38.04227 -54.10143,61.55631 -21.92409,21.9028 -37.53277,35.62845 -59.56944,52.38255 -83.78532,63.7006 -148.22272,85.6128 -253.80177,96.6206 -13.53095,1.4107 -56.93648,3.6729 -64.15491,3.3436 -1.65,-0.075 -11.1,-0.4686 -21,-0.8741 z M 636,1070.6199 c 60.70886,-6.8573 111.27255,-21.433 163.5,-47.1313 138.49959,-68.14802 237.0963,-199.8056 262.4367,-350.43534 5.4751,-32.54559 6.4733,-45.27523 6.4733,-82.55326 0,-37.27803 -0.9982,-50.00767 -6.4733,-82.55326 C 1027.6783,304.30587 862.16628,142.91388 657,113.08994 c -26.08064,-3.7912 -38.05707,-4.56705 -70.5,-4.56705 -41.61809,0 -68.12434,2.78385 -106,11.13276 -188.77346,41.61123 -337.39312,197.81577 -369.4367,388.29109 -5.47513,32.54559 -6.47331,45.27523 -6.47331,82.55326 0,37.27803 0.99818,50.00767 6.47331,82.55326 25.34038,150.62974 123.93711,282.28732 262.4367,350.43534 57.38825,28.2376 116.56158,43.998 183.5,48.8738 12.39405,0.9028 66.06053,-0.2809 79,-1.7425 z M 759.66667,793.33333 C 759.3,792.96667 759,767.99167 759,737.83333 L 759,683 l 17.5,0 17.5,0 0,55.5 0,55.5 -16.83333,0 c -9.25834,0 -17.13334,-0.3 -17.5,-0.66667 z M 835,738.52361 835,683 l 17.50847,0 17.50846,0 -0.25846,55.25 -0.25847,55.25 -17.25,0.27361 -17.25,0.27362 z m 75.46786,54.2501 C 910.1997,792.07317 910.09722,767.2 910.24014,737.5 l 0.25986,-54 17.5,0 17.5,0 0,55 0,55 -17.27229,0.27371 c -13.2699,0.21028 -17.38526,-0.0214 -17.75985,-1 z m -643,-76 C 267.1997,716.07317 267.09722,691.2 267.24014,661.5 l 0.25986,-54 17.5,0 17.5,0 0,55 0,55 -17.27229,0.27371 c -13.2699,0.21028 -17.38526,-0.0214 -17.75985,-1 z M 343.24153,662.75 343.5,607.5 l 17.25,-0.27361 17.25,-0.27362 0,55.52362 0,55.52361 -17.50847,0 -17.50846,0 z M 570,473.5 l 0,-55.5 17.5,0 17.5,0 0,55.5 0,55.5 -17.5,0 -17.5,0 z"
       id="path3709"
       inkscape:connector-curvature="0"
       sodipodi:nodetypes="sssssssssssssssscssssssssssssssscscccccsccccccccccsscccccsssscccccsscccccccccccccccccc" />
    <path
       style="fill:#a7a6a6"
       d="M 561,1169.9928 C 428.95814,1164.294 303.78162,1114.007 204.10725,1026.6188 187.48301,1012.0437 176.22926,1001.1628 162.5925,986.47942 71.502304,888.39817 18.54242,767.37655 7.9075089,633 c -1.4771276,-18.66412 -1.4771276,-66.33588 0,-85 C 15.900137,447.00981 47.197615,354.93323 101.68857,272.09793 187.32325,141.91901 321.18195,51.60844 473,21.584924 c 39.25455,-7.762975 71.49302,-10.84274 113.5,-10.84274 75.12853,0 143.2988,12.789984 212,39.775059 80.46577,31.606069 153.98796,81.560177 211.8804,143.960557 91.2022,98.30398 143.9046,218.71762 154.7288,353.5222 0.6404,7.975 1.1643,27.1 1.1643,42.5 0,15.4 -0.5239,34.525 -1.1643,42.5 -8.1421,101.4016 -39.3037,193.06196 -93.7978,275.90207 -44.1441,67.10645 -99.29656,122.24823 -166.51721,166.48513 C 803.20071,1142.2443 683.19807,1175.2668 561,1169.9928 z m 53,-96.0141 c 79.53097,-4.8782 154.39211,-27.8864 221,-67.9235 37.51306,-22.54851 67.72774,-46.58168 99.06882,-78.80064 C 1061.8917,795.85128 1104.0751,604.07276 1043.4395,430.02236 1025.1527,377.53145 997.02434,327.70819 960.17377,282.53539 946.50192,265.77592 911.22408,230.49808 894.46461,216.82623 848.40702,179.25388 798.37505,151.24105 743.90649,132.52895 605.09851,84.842925 450.85152,102.88852 327.70119,181.22146 296.96739,200.77048 272.81031,220.22164 245.39148,247.49683 205.72686,286.95364 177.66295,325.5695 153.45585,374 94.741843,491.46752 86.184507,626.46979 129.56051,750.97764 c 18.26132,52.41785 46.46644,102.37704 83.26572,147.48697 13.73658,16.83882 48.97419,52.05688 65.91575,65.87919 62.58157,51.0591 134.03793,85.1015 211.24852,100.6405 42.20036,8.4929 83.43014,11.4833 124.0095,8.9944 z"
       id="path3707"
       inkscape:connector-curvature="0" />
  </g>
</svg>
