<?xml version="1.0" encoding="UTF-8" standalone="no"?>
<!-- Created with Inkscape (http://www.inkscape.org/) -->

<svg
   xmlns:dc="http://purl.org/dc/elements/1.1/"
   xmlns:cc="http://creativecommons.org/ns#"
   xmlns:rdf="http://www.w3.org/1999/02/22-rdf-syntax-ns#"
   xmlns:svg="http://www.w3.org/2000/svg"
   xmlns="http://www.w3.org/2000/svg"
   xmlns:sodipodi="http://sodipodi.sourceforge.net/DTD/sodipodi-0.dtd"
   xmlns:inkscape="http://www.inkscape.org/namespaces/inkscape"
   id="svg3515"
   version="1.1"
   inkscape:version="0.48.4 r9939"
   width="1181"
   height="1181"
   sodipodi:docname="symbole_2016_sante.svg">
  <metadata
     id="metadata3521">
    <rdf:RDF>
      <cc:Work
         rdf:about="">
        <dc:format>image/svg+xml</dc:format>
        <dc:type
           rdf:resource="http://purl.org/dc/dcmitype/StillImage" />
        <dc:title />
      </cc:Work>
    </rdf:RDF>
  </metadata>
  <defs
     id="defs3519" />
  <sodipodi:namedview
     pagecolor="#ffffff"
     bordercolor="#666666"
     borderopacity="1"
     objecttolerance="10"
     gridtolerance="10"
     guidetolerance="10"
     inkscape:pageopacity="0"
     inkscape:pageshadow="2"
     inkscape:window-width="1855"
     inkscape:window-height="1056"
     id="namedview3517"
     showgrid="false"
     inkscape:zoom="0.93039766"
     inkscape:cx="883.79575"
     inkscape:cy="572.8588"
     inkscape:window-x="65"
     inkscape:window-y="24"
     inkscape:window-maximized="1"
     inkscape:current-layer="svg3515" />
  <path
     sodipodi:type="arc"
     style="fill:#ffffff;fill-opacity:1;fill-rule:evenodd;stroke:none"
     id="path3535"
     sodipodi:cx="623.30493"
     sodipodi:cy="586.65393"
     sodipodi:rx="512.98547"
     sodipodi:ry="475.75269"
     d="m 1136.2904,586.65393 a 512.98547,475.75269 0 1 1 -1025.97094,0 512.98547,475.75269 0 1 1 1025.97094,0 z"
     transform="translate(-41.369798,0)" />
  <g
     id="g3525"
     transform="translate(4.1369835,-1.3789908)">
    <path
       style="fill:#e8e7e7"
       d="M 549,1102.4339 262.5,1005.0507 71.849605,709.62006 l -9.529713,-110 5.006526,-83.5 L 407.66769,87.361764 529,61.985373 l 115,0 86.33231,15.327762 342.06149,301.060935 45.4399,155.98611 5.0065,83.5 -5.0065,83.5 L 766.97713,1074.8547 645,1100.647 z M 596.22556,961.75 C 612.38634,927.7654 668.38153,866.93765 723.5,823.49137 746.277,805.53775 756.51109,798.67789 824.18897,756 c 58.33493,-36.78619 88.75147,-63.88982 117.62031,-104.80933 4.54836,-6.44698 15.03178,-27.77277 15.79301,-32.12677 0.3427,-1.96015 1.88745,-7.89233 3.43278,-13.18264 5.59338,-19.14857 7.36089,-33.03851 7.36543,-57.88126 0.002,-12.375 -0.57443,-27.675 -1.28153,-34 C 958.75691,439.20126 927.94416,382.29427 877.5,348.48584 c -30.86767,-20.68798 -66.61828,-30.80688 -103,-29.15326 -49.69289,2.25864 -94.27538,23.37296 -131.51446,62.28541 -16.82181,17.57771 -29.60054,36.0802 -42.5661,61.63201 -4.11647,8.1125 -8.03235,14.74316 -8.70196,14.73479 -0.66961,-0.008 -4.25047,-6.2233 -7.95745,-13.81097 -12.98608,-26.58062 -27.82171,-48.01216 -46.75468,-67.54172 -13.05381,-13.46516 -22.26148,-21.18687 -36.11121,-30.28347 -88.01448,-57.80855 -197.21479,-30.50946 -251.19397,62.79622 -19.9244,34.4403 -30.89227,74.15067 -33.87945,122.66426 -1.8884,30.66863 0.87148,56.38226 8.67562,80.83026 1.90678,5.97334 3.47514,11.58155 3.48526,12.46266 0.0288,2.50937 10.60146,23.43337 15.54973,30.77401 9.08418,13.47617 25.59397,33.07935 37.41551,44.42594 25.71839,24.68514 49.98027,41.93506 112.05316,79.66851 44.69541,27.16986 61.04809,38.18672 84.26749,56.77133 48.51672,38.83234 92.55155,88.11714 110.35171,123.50818 2.42048,4.8125 4.57139,8.75 4.77981,8.75 0.20842,0 1.93037,-3.2625 3.82655,-7.25 z m -0.83167,-146.75611 c -0.59122,-0.59122 -16.77121,-52.13605 -35.95553,-114.54405 -19.18432,-62.40801 -35.29875,-113.32971 -35.80985,-113.15934 -0.5111,0.17036 -11.9991,18.78172 -25.52889,41.35858 -13.52979,22.57685 -25.21903,41.79398 -25.9761,42.70473 -1.26674,1.5239 -9.23838,1.63559 -100,1.40105 L 273.5,672.5 255.75702,646 c -9.75863,-14.575 -17.59548,-26.95 -17.41522,-27.5 0.21577,-0.65832 36.5839,-1 106.44069,-1 75.20842,0 106.43087,-0.31726 107.20456,-1.08933 1.29466,-1.29195 21.24312,-45.77822 49.73439,-110.91067 11.30772,-25.85 21.01422,-47.57798 21.57001,-48.28439 0.7273,-0.92441 3.69679,-1.20468 10.59485,-1 l 9.58432,0.28439 35.14593,131.7979 c 19.33026,72.48885 35.42437,132.07635 35.76469,132.41667 0.34032,0.34032 0.79749,0.43126 1.01594,0.2021 0.21846,-0.22917 15.1204,-22.69167 33.11544,-49.91667 17.99503,-27.225 33.64474,-50.5125 34.77713,-51.75 l 2.05888,-2.25 133.35707,0 c 112.71034,0 133.43937,0.21448 133.88866,1.38531 0.39074,1.01825 -15.24338,34.28462 -16.84992,35.85338 -0.13444,0.13128 -48.39444,0.46878 -107.24444,0.75 l -107,0.51131 -53.5,80 -53.5,80 -9.01558,0.28442 c -5.47892,0.17285 -9.43726,-0.13726 -10.09053,-0.79053 z M 217.68584,663.15601 c 7.80221,-0.38189 14.51195,-1.02047 14.91053,-1.41905 0.39859,-0.39858 0.0288,-1.51496 -0.82183,-2.48083 -2.49617,-2.83446 -6.82268,-12.05996 -10.37807,-22.12935 -1.82026,-5.15527 -3.59128,-9.65527 -3.9356,-10 -0.34431,-0.34473 -23.31386,-0.7551 -51.04344,-0.91193 L 116,625.92969 l 0,18.36849 c 0,10.10267 0.3,18.66849 0.66667,19.03515 0.86778,0.86779 82.59844,0.72432 101.01917,-0.17732 z M 1058,636.5 l 0,-18.5 -40.25,0.0576 c -22.1375,0.0317 -41.93541,0.3692 -43.99537,0.75 -3.69318,0.68272 -3.86386,0.92694 -12.25,17.52759 C 956.82709,645.59459 953,653.3241 953,653.5119 c 0,1.06038 8.15924,1.26675 54.25,1.3721 L 1058,655 z"
       id="path3533"
       inkscape:connector-curvature="0"
       sodipodi:nodetypes="ccccccccccccccccsssssscssssscsssssssssssssssscssscscssssscssssscsssscccsssscscscscsccssssscc" />
    <path
       style="fill:#d3d2d2"
       d="m 530.19409,1132.7643 c -54.22317,-4.1263 -100.49691,-13.273 -148.5,-29.3532 C 294.99328,1074.3677 274.79271,1038.7107 209.6293,972.62946 178.13669,940.69329 153.54676,909.77575 130.62799,873.29913 83.122796,797.69172 60.699639,735.37345 50.058045,641.10503 c -2.516855,-22.29553 -2.516855,-92.70447 0,-115 C 63.87621,403.697 108.41976,338.84259 185.68249,245.83785 c 13.82243,-16.6387 53.11456,-55.91403 69.94529,-69.91538 84.75933,-70.51059 153.51283,-108.250761 258.99865,-123.817618 33.25033,-4.90685 42.62284,-5.503129 86.5,-5.503129 43.87716,0 53.24967,0.596279 86.5,5.503129 144.25622,21.288321 250.481,102.962358 342.50317,218.316678 63.3716,79.43938 66.067,143.42035 80.7964,243.23142 4.8881,33.12368 5.4917,42.63011 5.4917,86.5 0,43.86989 -0.6036,53.37632 -5.4917,86.5 -16.067,108.87479 -14.8603,125.01731 -88.1504,208.73706 -11.1775,12.76808 -56.05278,79.80358 -69.30266,91.55008 -59.11051,52.40391 -126.87744,91.71521 -200.77885,116.47101 -41.46496,13.8901 -80.09436,22.2687 -127,27.5461 -13.75834,1.548 -81.94881,2.8383 -95.5,1.8071 z M 596.3567,965.75 C 614.02705,927.00165 675.6839,861.08706 737,815.39451 c 17.56713,-13.09097 27.93477,-19.9827 66,-43.87251 47.75585,-29.97166 68.49884,-44.48432 89.51704,-62.62987 13.69997,-11.82755 29.92139,-28.9367 39.08349,-41.22236 L 939.18468,657.5 999.34234,657 1059.5,656.5 l 0.2845,-18 c 0.1565,-9.9 0.035,-19.0125 -0.269,-20.25 l -0.5536,-2.25 -49.5879,0 c -45.7175,0 -49.53844,-0.12909 -48.95334,-1.65384 1.8976,-4.94508 6.7531,-25.23931 8.21749,-34.34616 2.28297,-14.19752 2.28006,-50.31733 -0.006,-68.91401 C 962.10029,457.9367 944.95933,415.05455 916.83417,381.5 868.51051,323.84775 793.87,302.91181 723.09071,327.15684 c -51.91143,17.78195 -95.05592,57.49817 -123.39364,113.58877 -3.95839,7.83508 -7.52162,14.13508 -7.9183,14 C 591.38209,454.61052 587.981,448.425 584.22079,441 548.42623,370.3193 493.39768,326.3858 427.5,315.87779 c -11.50008,-1.8338 -39.83964,-1.6105 -51.51189,0.40587 -34.25839,5.91812 -65.05868,21.30371 -90.92386,45.41897 -38.4943,35.88996 -61.87015,86.32346 -69.67904,150.33285 -2.31205,18.95187 -2.30994,54.79712 0.004,69.46452 1.97837,12.53984 5.7819,28.29807 8.65439,35.85562 1.07541,2.82941 1.95552,5.48188 1.9558,5.89438 2.7e-4,0.4125 -24.96593,0.75 -55.48045,0.75 l -55.48095,0 -0.5536,2.25 c -0.30448,1.2375 -0.42555,10.35 -0.26905,20.25 l 0.28455,18 66.95716,0.5 66.95716,0.5 6.50721,8.5 c 8.26153,10.79158 28.75513,31.85411 41.07847,42.21888 20.86575,17.54951 46.01927,34.88411 84.5,58.23333 53.77153,32.62732 73.48696,45.73883 96,63.84362 48.09644,38.67875 93.25896,89.41695 109.74992,123.29945 4.84046,9.94525 5.65107,11.40472 6.33434,11.40472 0.25643,0 1.95403,-3.2625 3.77244,-7.25 z M 596.309,813.7632 c -0.44496,-0.68024 -16.60963,-52.5221 -35.92148,-115.20415 -19.31185,-62.68205 -35.55167,-114.11376 -36.08849,-114.2927 -0.53681,-0.17894 -12.34897,18.70043 -26.24923,41.95415 -13.90027,23.25373 -26.1728,43.067 -27.2723,44.0295 -1.87421,1.64068 -8.00817,1.75 -98.19717,1.75 -75.43359,0 -96.54543,-0.26981 -97.80725,-1.25 C 273.11983,669.46573 240,620.14837 240,618.97083 c 0,-0.36048 45.8236,-0.43883 101.83023,-0.17412 56.00662,0.26471 103.93854,0.16513 106.51537,-0.22129 4.33138,-0.64953 4.86409,-1.05644 7.05503,-5.389 2.91614,-5.76666 33.08404,-73.74292 53.11687,-119.68642 8.1538,-18.7 15.25311,-34.5625 15.77624,-35.25 0.62591,-0.82257 3.77921,-1.25 9.22172,-1.25 6.89365,0 8.38025,0.28585 8.92943,1.71698 0.36238,0.94435 16.17665,60.00685 35.14282,131.25 18.96617,71.24316 34.72315,130.32052 35.01551,131.28302 0.29235,0.9625 1.06373,1.73785 1.71417,1.72299 0.65043,-0.0149 16.43429,-22.95319 35.07523,-50.97408 18.64094,-28.0209 34.67233,-51.6527 35.62531,-52.51513 1.55838,-1.41032 14.79707,-1.53867 131.60737,-1.27592 88.96926,0.20013 130.43566,0.6251 131.65576,1.34927 1.62862,0.96666 1.12191,2.39405 -5.92046,16.67795 -5.26751,10.68396 -8.35874,15.85276 -9.78106,16.35475 -1.14375,0.40367 -49.32954,0.99859 -107.07954,1.32205 l -105,0.58812 -51.21742,77 c -28.16958,42.35 -52.37627,78.4625 -53.79263,80.25 -2.51577,3.17499 -2.75752,3.25 -10.47356,3.25 -5.17097,0 -8.17772,-0.42708 -8.70737,-1.2368 z"
       id="path3531"
       inkscape:connector-curvature="0"
       sodipodi:nodetypes="sssssssssssssssssssscsssscccsccssscssscssssssscscsscccsssssscccsssssssssssssssscssssssscssscc" />
    <path
       style="fill:#c4c3c3"
       d="m 604.22274,1126.797 c -101.71569,-5.0616 -207.87765,-14.6423 -293.90217,-71.1815 -34.8493,-22.9045 -59.76815,-43.3622 -91.63905,-75.2331 C 186.84613,948.54698 166.65416,923.95894 143.48544,888.8151 54.496066,753.83009 20.617682,631.16497 59.819758,473.36214 81.079477,387.78392 89.020517,332.05848 147.1027,262.00678 160.98172,245.26759 201.27678,204.97253 218.01597,191.09351 287.97945,133.08447 342.4363,90.58994 427.73615,69.399374 c 92.9625,-23.094152 188.71138,-23.094152 281.67388,0 85.29985,21.190566 150.78864,43.000196 220.75212,101.009236 16.73919,13.87902 57.0343,54.17408 70.91325,70.91327 31.7728,38.32054 55.1992,74.31927 76.6252,117.74806 79.5194,161.17957 67.1085,303.05954 -12.4109,464.23911 -21.426,43.42879 -39.3364,80.80652 -71.10922,119.12706 -13.879,16.73919 -54.17411,57.0343 -70.9133,70.91329 -115.52992,95.7897 -170.65717,120.8316 -319.04444,113.4476 z m 28.99858,-56.3722 C 761.95209,1058.2072 881.00371,993.75805 962.61389,892.1067 1056.8783,774.69364 1090.6425,621.01389 1054.4389,474.16048 1015.1802,314.91454 895.29004,185.16218 739.25923,133.05404 641.2625,100.32699 533.25787,100.15047 435.29405,132.55724 278.33991,184.47821 157.97186,314.29772 118.56108,474.16048 c -21.844205,88.60709 -18.37842,181.84399 9.93918,267.38499 59.03164,178.32108 216.3438,306.53353 402.37142,327.94043 32.32775,3.7201 69.45677,4.0607 102.34964,0.9389 z M 596.3398,811.44312 c -0.34512,-0.89938 -16.24696,-52.4662 -35.33742,-114.59295 -19.09046,-62.12674 -35.18659,-113.43438 -35.76917,-114.01696 -0.74566,-0.74566 -1.52935,-0.50771 -2.64718,0.80377 -0.87336,1.02466 -12.95,20.76302 -26.83698,43.86302 l -25.24905,42 -98.03152,0.25487 -98.03151,0.25487 -1.71849,-2.90916 C 271.77332,665.50054 271,663.63892 271,662.96366 c 0,-0.67527 -3.08218,-5.55584 -6.84928,-10.84571 C 260.38362,646.82808 254.8275,638.675 251.8038,634 c -3.0237,-4.675 -6.46652,-9.35724 -7.65072,-10.40499 -1.18419,-1.04774 -2.15317,-2.39774 -2.15328,-3 -1.5e-4,-0.78838 29.05243,-1.00493 103.75,-0.77333 66.48634,0.20615 104.67925,-0.032 106.33685,-0.66314 2.22832,-0.8484 5.43773,-7.40398 23.16726,-47.32168 C 486.57324,546.35158 502.21364,510.875 510.01034,493 c 7.79671,-17.875 14.65371,-33.08017 15.23778,-33.78927 0.73778,-0.8957 3.35824,-1.20097 8.58416,-1 l 7.5222,0.28927 35.24217,132.21509 c 19.38319,72.7183 35.52999,132.6808 35.88178,133.25 0.35178,0.5692 1.23352,1.03491 1.95942,1.03491 0.7259,0 17.11493,-23.86192 36.42007,-53.02649 l 35.10024,-53.0265 123.43784,0.2765 c 67.89082,0.15207 123.73084,0.5696 124.08895,0.92786 1.53335,1.53394 -7.58549,23.90691 -11.962,29.34863 -1.58393,1.96945 -3.1314,2.00797 -101.31572,2.52155 -54.83898,0.28685 -99.83051,0.62435 -99.98118,0.75 -0.15068,0.12565 -24.16162,36.11595 -53.35765,79.97845 l -53.0837,79.75 -8.4087,0.28917 c -7.03399,0.2419 -8.51129,0.0218 -9.0362,-1.34605 z"
       id="path3529"
       inkscape:connector-curvature="0"
       sodipodi:nodetypes="ssssssssssssssssssssssssscsssscccssssssscsssscscsscscsscscsc" />
    <path
       style="fill:#a7a6a6"
       d="M 555.01513,1169.8978 C 454.0018,1164.6598 354.13437,1131.9547 269,1076.232 152.47184,999.96131 66.808134,883.78187 28.527826,750.09717 -1.0137219,646.93048 -1.0137219,534.06952 28.527826,430.90283 44.349031,375.6511 69.428712,320.80562 100.73346,273 144.21387,206.60086 202.5948,148.23191 269,104.76797 440.38569,-7.4084429 659.55756,-20.657319 843,70.069832 c 59.04408,29.202084 106.42096,63.262088 153.54452,110.385648 23.22088,23.2209 36.40998,38.35027 54.95948,63.04452 48.1123,64.05034 83.5135,140.72468 100.9732,218.69478 18.8867,84.34247 18.8867,172.26797 0,256.61044 C 1137.6377,785.07414 1109.3804,851.50704 1071.5776,909 1028.062,975.18129 970.26272,1032.8614 904,1076.232 800.80621,1143.7751 679.43781,1176.3497 555.01513,1169.8978 z M 616,1073.4486 c 84.2621,-3.9185 175.08954,-35.3537 246.37434,-85.2696 C 982.44424,904.10213 1056.8777,774.72765 1069.022,629 c 1.4473,-17.36701 1.4473,-59.63299 0,-77 C 1056.8786,406.28385 982.43476,276.89123 862.37434,192.821 793.35292,144.48996 711.37658,115.23812 624.5,107.93966 c -16.73242,-1.40568 -59.26758,-1.40568 -76,0 -65.74489,5.5232 -127.76923,23.20751 -184.04574,52.47494 C 215.26309,238.00365 117.8323,384.48089 103.98733,552 c -1.43534,17.36701 -1.43534,59.63299 0,77 5.37639,65.05235 23.55212,128.40281 52.97163,184.62951 80.5796,154.00411 235.36005,252.75309 408.04104,260.32759 17.13225,0.7515 25.75222,0.6656 51,-0.5085 z"
       id="path3527"
       inkscape:connector-curvature="0" />
  </g>
</svg>
