<?xml version="1.0" encoding="UTF-8" standalone="no"?>
<!-- Created with Inkscape (http://www.inkscape.org/) -->

<svg
   xmlns:dc="http://purl.org/dc/elements/1.1/"
   xmlns:cc="http://creativecommons.org/ns#"
   xmlns:rdf="http://www.w3.org/1999/02/22-rdf-syntax-ns#"
   xmlns:svg="http://www.w3.org/2000/svg"
   xmlns="http://www.w3.org/2000/svg"
   xmlns:sodipodi="http://sodipodi.sourceforge.net/DTD/sodipodi-0.dtd"
   xmlns:inkscape="http://www.inkscape.org/namespaces/inkscape"
   id="svg3333"
   version="1.1"
   inkscape:version="0.48.4 r9939"
   viewBox="0 0 64 64"
   sodipodi:docname="symbole_2016_nature.svg">
  <metadata
     id="metadata3339">
    <rdf:RDF>
      <cc:Work
         rdf:about="">
        <dc:format>image/svg+xml</dc:format>
        <dc:type
           rdf:resource="http://purl.org/dc/dcmitype/StillImage" />
        <dc:title></dc:title>
      </cc:Work>
    </rdf:RDF>
  </metadata>
  <defs
     id="defs3337" />
  <sodipodi:namedview
     pagecolor="#ffffff"
     bordercolor="#666666"
     borderopacity="1"
     objecttolerance="10"
     gridtolerance="10"
     guidetolerance="10"
     inkscape:pageopacity="0"
     inkscape:pageshadow="2"
     inkscape:window-width="1855"
     inkscape:window-height="1056"
     id="namedview3335"
     showgrid="false"
     inkscape:zoom="5.2631239"
     inkscape:cx="141.92101"
     inkscape:cy="9.1589235"
     inkscape:window-x="65"
     inkscape:window-y="24"
     inkscape:window-maximized="1"
     inkscape:current-layer="svg3333" />
  <path
     sodipodi:type="arc"
     style="fill:#ffffff;fill-opacity:1;fill-rule:evenodd;stroke:none"
     id="path3351"
     sodipodi:cx="216.47119"
     sodipodi:cy="797.78748"
     sodipodi:rx="415.39069"
     sodipodi:ry="435.86768"
     d="m 631.86188,797.78748 a 415.39069,435.86768 0 1 1 -830.78137,0 415.39069,435.86768 0 1 1 830.78137,0 z"
     transform="matrix(0.0540168,0,0,0.0540168,20.230817,-10.693422)" />
  <g
     id="g3343"
     transform="matrix(0.0540168,0,0,0.0540168,0.469954,-0.1282613)">
    <path
       style="fill:#f8f7f7"
       d="m 572.44289,1127.4106 c -140.8359,-8.8934 -274.60026,-69.4989 -375.00935,-169.90798 -59.40245,-59.40249 -77.60505,-89.19441 -106.887971,-167.6396 -48.63766,-130.29404 -48.63766,-276.70596 0,-407 16.218031,-43.44603 41.071331,-91.24018 66.300891,-127.5 C 267.68811,96.0619 378.08123,45.527548 570.95208,45.631929 c 191.19521,0.103475 369.30241,93.851041 479.67632,252.479881 25.2296,36.25982 50.0828,84.05397 66.3009,127.5 37.4697,100.37654 20.1686,145.07489 -0.7591,250.80832 -27.8406,140.65963 -106.8992,266.35857 -222.02386,353.00617 -91.23234,68.6652 -132.77407,90.4807 -248.20345,98.0521 -17.19158,1.1276 -55.12355,1.0927 -73.5,-0.068 z"
       id="path3349"
       inkscape:connector-curvature="0"
       sodipodi:nodetypes="csssssssssscc" />
    <path
       style="fill:#d2d1d1"
       d="M 547.69924,1115.3294 C 359.69636,1105.7202 249.17195,1039.1399 148.19084,878.82567 35.98414,700.69003 29.109906,474.25702 130.30556,289.6956 215.96997,133.46019 312.25084,100.53686 486.96609,71.107257 571.3668,56.890527 659.25685,61.434548 740.97696,84.239925 880.06625,123.05514 957.43781,162.10218 1034.5529,284.62261 c 76.1274,120.95126 104.9476,265.73031 81.0908,407.36149 -26.4516,157.03568 -80.1459,236.58703 -213.36427,325.8929 -104.48507,70.0438 -227.79047,103.9329 -354.58019,97.4524 z M 576,979.9542 c 80.46519,-11.59354 132.20571,-66.50407 143.51373,-152.30646 0.60681,-4.60433 0.77608,-4.82668 3.31288,-4.35185 1.47036,0.27523 8.97339,1.84615 16.67339,3.49094 20.52326,4.38394 40.93727,6.49405 63,6.51201 35.62485,0.029 62.1813,-5.33892 88,-17.78768 32.85977,-15.84369 57.14824,-43.81146 69.9928,-80.59557 26.88063,-76.98042 6.16228,-140.2473 -60.46371,-184.63584 -15.42921,-10.27948 -41.11694,-22.6225 -59.77909,-28.72402 -2.8875,-0.94405 -5.25,-1.95192 -5.25,-2.2397 0,-0.28779 3.30333,-4.63912 7.34073,-9.66964 28.11582,-35.03172 45.90431,-71.71448 50.70822,-104.56858 1.66122,-11.36118 0.71418,-31.23608 -1.98119,-41.57781 -7.6145,-29.21565 -33.05043,-57.64329 -63.23613,-70.67379 C 797.37882,279.6804 760.8852,279.8554 721.5,293.3361 692.11104,303.3953 662.95091,320.64316 642.32079,340.16962 638.35175,343.92633 634.4404,347 633.6289,347 c -2.85782,0 -7.45188,-5.08758 -17.18934,-19.0359 C 587.17952,286.05087 563.94347,265.35613 534,254.54092 c -24.52297,-8.8574 -51.5725,-9.69331 -80.97598,-2.5024 -52.4374,12.82409 -83.40323,40.33886 -94.25901,83.75408 -1.85724,7.42763 -2.17561,11.49993 -2.16613,27.7074 0.01,16.83558 0.32097,20.46331 2.73123,31.84548 1.49607,7.06501 4.53208,18.20784 6.7467,24.76185 2.21462,6.554 3.75176,12.36104 3.41587,12.90452 -0.33589,0.54348 -2.16212,0.98815 -4.05828,0.98815 -4.97684,0 -22.54364,2.73518 -32.4344,5.05009 -30.80715,7.21036 -61.83958,22.38859 -81.41385,39.82023 -27.00232,24.04661 -42.52443,55.73356 -46.52949,94.98563 -3.73703,36.62522 2.57485,66.80926 19.39428,92.74546 7.68735,11.85419 23.98956,27.97555 37.04906,36.63805 29.13183,19.32346 72.55658,33.35276 112.59104,36.37496 4.93415,0.37248 9.20516,1.05583 9.49114,1.51855 0.28598,0.46272 -0.8868,5.23292 -2.60617,10.60044 -11.17447,34.88442 -16.08966,74.37162 -12.95807,104.10144 2.15041,20.41495 6.15593,34.70232 14.48452,51.66515 21.97123,44.74877 68.1118,69.57544 138.49754,74.52081 15.88395,1.11602 38.91785,0.25052 55,-2.06661 z M 563.5,692.91894 C 547.80064,690.72843 529.26495,682.35247 515.8758,671.39839 501.45954,659.604 488.58252,639.29731 483.91682,621 c -6.33485,-24.84318 -2.05874,-53.35344 11.24445,-74.97039 13.2077,-21.4618 34.63844,-37.20086 59.41011,-43.63171 14.18917,-3.68357 32.61547,-3.68627 46.92862,-0.007 31.75449,8.16295 57.70928,31.92791 68.09144,62.34649 4.48758,13.14814 5.75933,22.27733 5.12121,36.76248 -0.65279,14.81841 -3.14373,24.5889 -9.6879,38 -18.4875,37.88681 -59.22417,59.32109 -101.52475,53.41894 z"
       id="path3347"
       inkscape:connector-curvature="0"
       sodipodi:nodetypes="ssssssssssssssssssssssssssssssssssssssssssssssscsssssssscc" />
    <path
       style="fill:#a7a6a6"
       d="M 549,1169.9215 C 489.98563,1166.2143 425.83694,1151.8121 372,1130.1827 216.33482,1067.6432 96.290236,943.29616 39.634658,785.90532 4.6356461,688.67705 -3.3454989,578.86195 17.147689,476.5 47.725583,323.7657 138.17168,190.14507 268.9673,104.47405 342.51382,56.301139 425.60232,25.690827 513,14.570909 c 26.33348,-3.350502 38.45423,-4.01469 73.5,-4.027624 35.15498,-0.01297 46.72623,0.621102 73.5,4.027624 156.37735,19.896447 297.28705,102.213711 392.0914,229.053711 110.3868,147.68794 143.611,340.1266 89.4104,517.87538 -32.6811,107.17638 -98.8591,205.6761 -186.51033,277.6031 -95.05022,77.9987 -208.7804,122.7675 -332.49147,130.8821 -17.16616,1.1259 -55.08546,1.0931 -73.5,-0.064 z m 69.17045,-96.9785 c 104.13396,-7.1805 197.83322,-44.8532 279.51652,-112.38234 13.92303,-11.51043 47.36326,-44.95066 58.87369,-58.87369 36.22427,-43.8169 63.13644,-89.70724 82.21534,-140.19268 41.5508,-109.94914 41.5508,-232.03944 0,-341.98858 C 1003.353,325.77157 938.50705,244.27425 855,188.53916 757.29696,123.32925 641.35109,96.148074 524.5,111.0601 307.44032,138.7603 134.69118,311.43349 107.03369,528.34289 c -22.710196,178.10918 53.3143,351.8396 199.78004,456.53532 89.17576,63.74409 201.85748,95.61519 311.35672,88.06479 z"
       id="path3345"
       inkscape:connector-curvature="0" />
  </g>
</svg>
