<?xml version="1.0" encoding="UTF-8" standalone="no"?>
<!-- Created with Inkscape (http://www.inkscape.org/) -->

<svg
   xmlns:dc="http://purl.org/dc/elements/1.1/"
   xmlns:cc="http://creativecommons.org/ns#"
   xmlns:rdf="http://www.w3.org/1999/02/22-rdf-syntax-ns#"
   xmlns:svg="http://www.w3.org/2000/svg"
   xmlns="http://www.w3.org/2000/svg"
   xmlns:sodipodi="http://sodipodi.sourceforge.net/DTD/sodipodi-0.dtd"
   xmlns:inkscape="http://www.inkscape.org/namespaces/inkscape"
   id="svg3138"
   version="1.1"
   inkscape:version="0.48.4 r9939"
   width="64"
   height="64"
   sodipodi:docname="symbole_2016_jeu.svg">
  <metadata
     id="metadata3144">
    <rdf:RDF>
      <cc:Work
         rdf:about="">
        <dc:format>image/svg+xml</dc:format>
        <dc:type
           rdf:resource="http://purl.org/dc/dcmitype/StillImage" />
        <dc:title></dc:title>
      </cc:Work>
    </rdf:RDF>
  </metadata>
  <defs
     id="defs3142" />
  <sodipodi:namedview
     pagecolor="#ffffff"
     bordercolor="#666666"
     borderopacity="1"
     objecttolerance="10"
     gridtolerance="10"
     guidetolerance="10"
     inkscape:pageopacity="0"
     inkscape:pageshadow="2"
     inkscape:window-width="1855"
     inkscape:window-height="1056"
     id="namedview3140"
     showgrid="false"
     inkscape:zoom="10.526248"
     inkscape:cx="43.659777"
     inkscape:cy="32.403809"
     inkscape:window-x="65"
     inkscape:window-y="24"
     inkscape:window-maximized="1"
     inkscape:current-layer="svg3138" />
  <path
     sodipodi:type="arc"
     style="fill:#ffffff;fill-opacity:1;fill-rule:evenodd;stroke:none"
     id="path3173"
     sodipodi:cx="583.10712"
     sodipodi:cy="584.24158"
     sodipodi:rx="534.35236"
     sodipodi:ry="553.85425"
     d="m 1117.4595,584.24158 a 534.35236,553.85425 0 1 1 -1068.704739,0 534.35236,553.85425 0 1 1 1068.704739,0 z"
     transform="matrix(0.05449091,0,0,0.05449091,-0.18434466,0.0909352)" />
  <g
     id="g3148"
     transform="matrix(0.05449091,0,0,0.05449091,0.04108316,-0.20963131)">
    <path
       style="fill:#d2d1d1"
       d="M 584.4891,1114.0033 C 474.9063,1108.0507 368.28329,1070.5706 278.73208,1006.5235 186.8489,940.80851 135.5337,919.40197 94.258917,814.74788 c -53.807051,-136.43022 -53.807051,-290.00164 0,-426.43186 24.146683,-61.22501 2.53624,-64.18443 46.821703,-115.88233 12.66128,-14.78051 43.6229,-45.74213 58.40341,-58.40341 C 331.51991,100.92569 499.42189,52.590829 670.27345,78.501571 808.83507,99.515335 937.80273,172.56836 1028.3664,281.34135 c 113.4729,136.2885 131.0549,239.01419 95.4184,412.86872 -16.9889,82.88147 -74.5124,172.26957 -123.7397,241.67952 -54.77844,77.23691 -219.82935,188.74561 -415.556,178.11371 z M 669.3346,930.3352 C 718.10057,929.96956 758,929.36555 758,928.99295 c 0,-0.3726 -4.1625,-1.69103 -9.25,-2.92984 C 697.2528,913.52346 659.4694,880.67288 639.98737,831.5 c -4.39447,-11.09169 -9.66035,-32.22246 -11.46978,-46.02561 -1.59616,-12.17618 -2.04199,-30.05681 -0.76759,-30.78477 0.4125,-0.23563 5.925,0.62741 12.25,1.91786 12.88863,2.62958 33.7318,5.73489 51,7.59822 17.58541,1.89756 67.49184,1.57642 83.33357,-0.53623 69.13324,-9.2196 114.2546,-36.53819 137.59221,-83.3048 9.71365,-19.46535 12.58435,-31.10732 12.54229,-50.86467 -0.0282,-13.23622 -0.35654,-16.17585 -2.79257,-25 -7.69981,-27.8914 -27.08093,-56.27909 -60.76353,-89.00086 C 839.20168,494.40816 820.48374,478.83391 763,434.03156 c -54.79261,-42.7049 -77.83656,-62.0824 -102.87625,-86.50793 -29.79616,-29.06534 -48.86751,-53.95132 -63.02187,-82.23648 -3.18913,-6.37295 -6.02916,-11.18217 -6.31118,-10.68717 -0.28202,0.49501 -1.47595,4.12203 -2.65318,8.06004 -6.17919,20.67025 -19.66403,41.26263 -44.29969,67.64896 -18.43866,19.74896 -42.27831,40.84836 -96.83783,85.70679 -68.3548,56.20081 -96.31866,81.54913 -121.68636,110.3047 -47.19612,53.49918 -63.64443,100.61274 -50.74757,145.35833 12.96667,44.98779 46.2405,75.53251 96.13294,88.24814 40.59447,10.34593 96.83852,9.93292 149.80099,-1.10002 17.05665,-3.55318 22.5,-4.35337 22.5,-3.3076 0,4.21713 -6.18241,29.12324 -10.39052,41.85867 -12.14782,36.76414 -28.01101,64.33488 -50.58714,87.92209 -18.63977,19.47455 -39.73138,33.71572 -61.75292,41.6959 -3.42682,1.24181 -5.98776,2.65073 -5.69099,3.13093 0.64106,1.03725 130.08189,1.14308 254.75617,0.20829 z"
       id="path3152"
       inkscape:connector-curvature="0"
       sodipodi:nodetypes="ssssssssssssssssssssssssssssssssssssssscs" />
    <path
       style="fill:#a7a6a6"
       d="M 549,1169.9215 C 489.98563,1166.2143 425.83694,1151.8121 372,1130.1827 216.33482,1067.6432 96.290236,943.29616 39.634658,785.90532 4.6356461,688.67705 -3.3454989,578.86195 17.147689,476.5 47.725583,323.7657 138.17168,190.14507 268.9673,104.47405 342.51382,56.301139 425.60232,25.690827 513,14.570909 c 26.33348,-3.350502 38.45423,-4.01469 73.5,-4.027624 35.15498,-0.01297 46.72623,0.621102 73.5,4.027624 156.37735,19.896447 297.28705,102.213711 392.0914,229.053711 110.3868,147.68794 143.611,340.1266 89.4104,517.87538 -32.6811,107.17638 -98.8591,205.6761 -186.51033,277.6031 -95.05022,77.9987 -208.7804,122.7675 -332.49147,130.8821 -17.16616,1.1259 -55.08546,1.0931 -73.5,-0.064 z m 69.17045,-96.9785 c 104.13396,-7.1805 197.83322,-44.8532 279.51652,-112.38234 13.92303,-11.51043 47.36326,-44.95066 58.87369,-58.87369 36.22427,-43.8169 63.13644,-89.70724 82.21534,-140.19268 41.5508,-109.94914 41.5508,-232.03944 0,-341.98858 C 1003.353,325.77157 938.50705,244.27425 855,188.53916 757.29696,123.32925 641.35109,96.148074 524.5,111.0601 307.44032,138.7603 134.69118,311.43349 107.03369,528.34289 c -22.710196,178.10918 53.3143,351.8396 199.78004,456.53532 89.17576,63.74409 201.85748,95.61519 311.35672,88.06479 z"
       id="path3150"
       inkscape:connector-curvature="0" />
  </g>
</svg>
