<?xml version="1.0" encoding="UTF-8" standalone="no"?>
<!-- Created with Inkscape (http://www.inkscape.org/) -->

<svg
   xmlns:dc="http://purl.org/dc/elements/1.1/"
   xmlns:cc="http://creativecommons.org/ns#"
   xmlns:rdf="http://www.w3.org/1999/02/22-rdf-syntax-ns#"
   xmlns:svg="http://www.w3.org/2000/svg"
   xmlns="http://www.w3.org/2000/svg"
   xmlns:sodipodi="http://sodipodi.sourceforge.net/DTD/sodipodi-0.dtd"
   xmlns:inkscape="http://www.inkscape.org/namespaces/inkscape"
   id="svg4057"
   version="1.1"
   inkscape:version="0.48.4 r9939"
   viewBox="0 0 64 64"
   sodipodi:docname="symbole_2016_atelier.svg">
  <metadata
     id="metadata4063">
    <rdf:RDF>
      <cc:Work
         rdf:about="">
        <dc:format>image/svg+xml</dc:format>
        <dc:type
           rdf:resource="http://purl.org/dc/dcmitype/StillImage" />
        <dc:title></dc:title>
      </cc:Work>
    </rdf:RDF>
  </metadata>
  <defs
     id="defs4061" />
  <sodipodi:namedview
     pagecolor="#ffffff"
     bordercolor="#666666"
     borderopacity="1"
     objecttolerance="10"
     gridtolerance="10"
     guidetolerance="10"
     inkscape:pageopacity="0"
     inkscape:pageshadow="2"
     inkscape:window-width="1855"
     inkscape:window-height="1056"
     id="namedview4059"
     showgrid="false"
     inkscape:zoom="7.4431812"
     inkscape:cx="108.59412"
     inkscape:cy="51.842763"
     inkscape:window-x="65"
     inkscape:window-y="24"
     inkscape:window-maximized="1"
     inkscape:current-layer="svg4057" />
  <path
     sodipodi:type="arc"
     style="fill:#ffffff;fill-opacity:1;fill-rule:evenodd;stroke:none"
     id="path4075"
     sodipodi:cx="611.38489"
     sodipodi:cy="613.49445"
     sodipodi:rx="488.52283"
     sodipodi:ry="507.04965"
     d="m 1099.9077,613.49445 a 488.52283,507.04965 0 1 1 -977.04564,0 488.52283,507.04965 0 1 1 977.04564,0 z"
     transform="matrix(0.05418056,0,0,0.05418056,-3.3604989,1.0770916)" />
  <g
     id="g4067"
     transform="matrix(0.05418056,0,0,0.05418056,0.10823235,0.21897485)">
    <path
       style="fill:#e2e1e1"
       d="m 550.62101,1133.7606 c -102.39002,-7.1735 -191.12026,-35.7812 -276.5,-89.1471 -61.88554,-38.681 -85.70604,-66.31567 -129.4116,-127.64545 -60.333461,-84.66287 -95.276768,-179.45829 -105.793391,-287 -1.769448,-18.09415 -1.769448,-82.90585 0,-101 8.240871,-84.27015 2.223818,-112.9346 40.78429,-182.7871 C 116.51828,279.485 166.3452,220.10366 225.63698,172.26064 c 82.20718,-66.33366 181.63501,-109.126066 286.5,-123.305783 28.79725,-3.893929 40.86142,-4.601032 78.5,-4.601032 37.63858,0 49.70275,0.707103 78.5,4.601032 142.30146,19.24183 272.29133,90.577853 366.11402,200.916553 71.6614,84.27629 75.1781,160.52069 90.0362,270.40255 3.8939,28.79725 4.601,40.86142 4.601,78.5 0,37.63858 -0.7071,49.70275 -4.601,78.5 -20.117,148.77345 -59.5591,236.45818 -178.08154,331.00764 -87.26497,69.6143 -190.29135,111.3704 -305.08465,123.6494 -14.29058,1.5286 -77.69882,2.7965 -91.5,1.8296 z M 512.00084,766.75 c 4.7e-4,-37.50464 0.44636,-71.02281 1.02766,-77.25 2.02325,-21.67435 8.25511,-41.33507 19.09686,-60.2481 C 535.35641,623.61545 538,618.5974 538,618.10068 c 0,-1.74317 -15.31565,-15.18335 -23.36587,-20.5046 -10.8405,-7.16565 -18.72847,-11.01416 -30.96264,-15.10654 -19.10882,-6.39199 -20.59577,-6.4815 -107.67149,-6.4815 -87.06853,0 -88.56408,0.09 -107.66013,6.4777 -37.36624,12.49916 -67.12369,41.22215 -80.46394,77.66673 -7.44973,20.35214 -7.20154,17.11894 -7.60689,99.09753 L 179.90438,833 345.95219,833 512,833 z M 400.49146,554.50139 c 41.44827,-8.8806 74.29192,-37.89304 87.48886,-77.28326 C 504.62174,427.54682 486.03667,372.37204 442.85036,343.23769 422.1028,329.24098 403.64792,323.70998 377.5,323.65195 c -17.85115,-0.0396 -27.51007,1.62373 -42.0594,7.24299 -38.78915,14.9812 -67.58316,50.6332 -73.48342,90.98529 -1.93689,13.2465 -0.74243,36.40497 2.47642,48.01356 8.25899,29.78546 26.77587,54.3563 53.0664,70.41604 12.23825,7.47582 29.52344,13.46029 45.13477,15.62654 8.89658,1.2345 28.94422,0.47458 37.85669,-1.43498 z"
       id="path4073"
       inkscape:connector-curvature="0"
       sodipodi:nodetypes="ssssssssssssssssssssssssssscccsssssssssss" />
    <path
       style="fill:#d2d1d1"
       d="m 565.00191,1120.2041 c -125.5592,-9.234 -242.42674,-57.2942 -338,-138.99807 -16.44164,-14.0556 -50.71507,-48.54941 -64.49637,-64.911 C 81.087565,819.63306 52.036695,757.55532 43.097374,631.7628 41.775127,613.15639 41.75708,571.70932 43.063274,553.45019 51.197736,439.73952 56.648704,380.1349 123.92029,289.80458 156.038,246.67787 199.77367,202.9422 242.90038,170.82449 c 41.57674,-30.96339 85.38675,-55.43909 133.1986,-74.415144 55.85507,-22.168329 113.40631,-35.16736 175.3014,-39.595117 18.00104,-1.287732 59.99896,-1.287732 78,0 126.17444,9.026076 240.59395,55.464711 337.5,136.978721 17.21206,14.47819 52.25272,49.53139 66.98762,67.01163 81.4252,96.596 75.3169,162.50743 84.3476,288.74523 1.3061,18.25913 1.2881,59.7062 -0.034,78.31261 -8.9394,125.79252 -55.542,240.52542 -136.95987,337.18739 -13.7813,16.36159 -48.05476,50.85539 -64.4964,64.91099 -96.16715,82.2116 -144.76464,81.2891 -271.43071,90.2905 -16.72729,1.1887 -63.88467,1.161 -80.31261,-0.047 z M 948.78772,903.15236 c 1.04098,-0.66047 1.2206,-21.78267 0.93739,-110.23469 -0.34133,-106.60646 -0.40404,-109.66266 -2.44098,-118.95318 -6.16842,-28.13426 -18.51907,-51.67436 -37.56332,-71.595 -19.83234,-20.74499 -43.80113,-34.29994 -73.63151,-41.64046 -8.36751,-2.05904 -10.952,-2.12273 -100.0893,-2.46651 -99.54465,-0.38391 -100.09067,-0.3599 -119.5,5.2549 -25.96449,7.5111 -51.7875,24.15865 -68.86569,44.39626 -3.75316,4.44748 -7.05861,8.08632 -7.34546,8.08632 -0.28684,0 -3.28168,-2.55807 -6.65519,-5.68459 C 513.78497,591.91992 489.16055,579.62503 464,575.54759 450.08498,573.29256 302.11371,573.25977 288.24752,575.50865 234.67865,584.19666 192.24652,624.90226 180.36661,679 178.63849,686.86935 178.5,692.9533 178.5,761 l 0,73.5 167,0.5 167,0.5 0.25232,33 c 0.13878,18.15 0.46216,33.5625 0.71862,34.25 0.37109,0.99479 44.72669,1.24687 217.24768,1.23469 119.22976,-0.008 217.36086,-0.38297 218.0691,-0.83233 z M 400.58601,556.45048 C 456.22036,544.95889 496,496.4088 496,440 496,408.66123 483.97336,379.2792 462,356.93532 445.05197,339.7015 425.36977,328.89417 400.83763,323.35155 390.2142,320.95137 365.25809,320.97698 354,323.39961 c -47.9882,10.32659 -85.32868,48.4029 -93.51735,95.3602 -1.6967,9.72961 -1.94311,30.81002 -0.46649,39.90801 8.36549,51.54282 50.20973,92.06963 102.48384,99.2572 9.13009,1.25537 28.50037,0.50543 38.08601,-1.47454 z m 353.16647,-21.95913 c 53.5654,-8.68744 96.31463,-50.77454 106.87686,-105.22145 2.33396,-12.03123 2.32671,-34.80142 -0.0149,-46.73362 C 850.00292,328.46215 810.32518,288.37669 756.5,277.35198 c -10.19763,-2.08873 -36.07374,-2.36086 -46.5,-0.48904 -17.29042,3.10415 -35.99579,10.70862 -51.32956,20.86748 -9.45223,6.26225 -28.10382,24.85034 -34.39463,34.27752 -15.2715,22.88536 -22.45765,46.44381 -22.41764,73.49206 0.0412,27.86482 6.73262,50.16269 21.89773,72.97017 19.25542,28.95908 51.2927,49.85995 85.7441,55.93878 10.76246,1.899 32.79863,1.94003 44.25248,0.0824 z"
       id="path4071"
       inkscape:connector-curvature="0"
       sodipodi:nodetypes="cssssssssssssssssccsssssssssssssscccssssssssssssssssssssssss" />
    <path
       style="fill:#a7a6a6"
       d="M 549,1169.9215 C 489.98563,1166.2143 425.83694,1151.8121 372,1130.1827 216.33482,1067.6432 96.290236,943.29616 39.634658,785.90532 4.6356461,688.67705 -3.3454989,578.86195 17.147689,476.5 47.725583,323.7657 138.17168,190.14507 268.9673,104.47405 342.51382,56.301139 425.60232,25.690827 513,14.570909 c 26.33348,-3.350502 38.45423,-4.01469 73.5,-4.027624 35.15498,-0.01297 46.72623,0.621102 73.5,4.027624 156.37735,19.896447 297.28705,102.213711 392.0914,229.053711 110.3868,147.68794 143.611,340.1266 89.4104,517.87538 -32.6811,107.17638 -98.8591,205.6761 -186.51033,277.6031 -95.05022,77.9987 -208.7804,122.7675 -332.49147,130.8821 -17.16616,1.1259 -55.08546,1.0931 -73.5,-0.064 z m 69.17045,-96.9785 c 104.13396,-7.1805 197.83322,-44.8532 279.51652,-112.38234 13.92303,-11.51043 47.36326,-44.95066 58.87369,-58.87369 36.22427,-43.8169 63.13644,-89.70724 82.21534,-140.19268 41.5508,-109.94914 41.5508,-232.03944 0,-341.98858 C 1003.353,325.77157 938.50705,244.27425 855,188.53916 757.29696,123.32925 641.35109,96.148074 524.5,111.0601 307.44032,138.7603 134.69118,311.43349 107.03369,528.34289 c -22.710196,178.10918 53.3143,351.8396 199.78004,456.53532 89.17576,63.74409 201.85748,95.61519 311.35672,88.06479 z"
       id="path4069"
       inkscape:connector-curvature="0" />
  </g>
</svg>
